<svg xmlns="http://www.w3.org/2000/svg" width="20" height="19.971" viewBox="0 0 20 19.971"><defs><style>.a{fill:#002036;}</style></defs><path class="a" d="M15.714,5.714a5.714,5.714,0,1,0-11.429,0H0V16.4a3.571,3.571,0,0,0,3.571,3.571H16.429A3.571,3.571,0,0,0,20,16.4V5.714ZM10,1.429a4.291,4.291,0,0,1,4.286,4.286H5.714A4.291,4.291,0,0,1,10,1.429ZM18.571,16.4a2.145,2.145,0,0,1-2.143,2.143H3.571A2.145,2.145,0,0,1,1.429,16.4V7.143H4.286V9.286a.714.714,0,1,0,1.429,0V7.143h8.571V9.286a.714.714,0,1,0,1.429,0V7.143h2.857Z"/></svg>