<svg xmlns="http://www.w3.org/2000/svg" width="43.99" height="44" viewBox="0 0 43.99 44"><defs><style>.a{fill:#fff;}</style></defs><path class="a" d="M30.577,23.47l-2.51,2.51,2.51,2.51a.712.712,0,0,1,0,1l-1,1a.712.712,0,0,1-1,0l-2.51-2.51-2.014,2,2.51,2.51a.712.712,0,0,1,0,1l-1,1a.712.712,0,0,1-1,0l-2.51-2.51-2,2,2.51,2.51a.712.712,0,0,1,0,1l-1,1a.712.712,0,0,1-1,0L18.033,36l-2.51,2.51a.712.712,0,0,1-1,0l-1-1a.712.712,0,0,1,0-1L16.029,34l-2.519-2.5a.712.712,0,0,1,0-1l1-1a.712.712,0,0,1,1,0L18.025,32l2-2-2.51-2.51a.712.712,0,0,1,0-1l1-1a.712.712,0,0,1,1,0l2.51,2.51,2-2-2.51-2.51a.712.712,0,0,1,0-1l1-1a.712.712,0,0,1,1,0l2.51,2.51,2.51-2.51a.712.712,0,0,1,1,0l1,1a.686.686,0,0,1,.018.994Zm5.083,20.154C23.427,55.883,6.759,51.218,4.648,50.65a4.66,4.66,0,0,1-3.3-3.309C-.169,41.6-2.458,27.258,8.427,16.356,20.659,4.1,37.327,8.763,39.438,9.33a4.66,4.66,0,0,1,3.3,3.309c1.517,5.739,3.805,20.083-7.079,30.985Zm3.051-31.553A37.985,37.985,0,0,0,31.056,10.9L41.159,21a36.833,36.833,0,0,0-1.153-7.638A1.836,1.836,0,0,0,38.711,12.071ZM5.375,47.909A37.985,37.985,0,0,0,13.03,49.08L2.936,38.976a36.833,36.833,0,0,0,1.153,7.638A1.81,1.81,0,0,0,5.375,47.909ZM41.1,24.952,27.064,10.927a25.324,25.324,0,0,0-16.632,7.425A25.758,25.758,0,0,0,2.989,35.02L17.013,49.044a25.324,25.324,0,0,0,16.632-7.425A25.691,25.691,0,0,0,41.1,24.952Z" transform="translate(-0.048 -7.99)"/></svg>