<svg xmlns="http://www.w3.org/2000/svg" width="20.002" height="20" viewBox="0 0 20.002 20"><defs><style>.a{fill:#002036;}</style></defs><path class="a" d="M19.689,10.044H2.5V2.436a1.143,1.143,0,0,1,1.951-.808l.986.986a2.747,2.747,0,0,0,.436,3.495l-.459.459a.313.313,0,0,0,0,.442l.442.442a.313.313,0,0,0,.442,0L11.16,2.59a.313.313,0,0,0,0-.442l-.442-.442a.313.313,0,0,0-.442,0l-.46.459A2.747,2.747,0,0,0,6.321,1.73L5.335.746A2.392,2.392,0,0,0,1.25,2.436v7.608H.313A.313.313,0,0,0,0,10.356v.625a.313.313,0,0,0,.313.313H1.25v3.75a3.739,3.739,0,0,0,2.5,3.521v1.167a.313.313,0,0,0,.313.313h.625A.313.313,0,0,0,5,19.732v-.938H15v.938a.313.313,0,0,0,.313.313h.625a.313.313,0,0,0,.313-.313V18.565a3.739,3.739,0,0,0,2.5-3.521v-3.75h.938A.313.313,0,0,0,20,10.981v-.625A.313.313,0,0,0,19.689,10.044Zm-10.754-7-2.18,2.18a1.511,1.511,0,0,1-.5-1.122A1.563,1.563,0,0,1,7.813,2.543a1.511,1.511,0,0,1,1.122.5Zm8.567,12a2.5,2.5,0,0,1-2.5,2.5H5a2.5,2.5,0,0,1-2.5-2.5v-3.75h15Z" transform="translate(0 -0.045)"/></svg>