<svg xmlns="http://www.w3.org/2000/svg" width="22.75" height="24" viewBox="0 0 22.75 24"><defs><style>.a{fill:#fff;}</style></defs><path class="a" d="M20.312,3H17.875V.562A.589.589,0,0,0,17.265,0h-.406a.589.589,0,0,0-.609.562V3H6.5V.562A.589.589,0,0,0,5.891,0H5.484a.589.589,0,0,0-.609.562V3H2.437A2.35,2.35,0,0,0,0,5.25v16.5A2.35,2.35,0,0,0,2.437,24H20.312a2.35,2.35,0,0,0,2.437-2.25V5.25A2.35,2.35,0,0,0,20.312,3ZM2.437,4.5H20.312a.785.785,0,0,1,.812.75V7.5H1.625V5.25A.785.785,0,0,1,2.437,4.5Zm17.875,18H2.437a.785.785,0,0,1-.812-.75V9h19.5V21.75A.785.785,0,0,1,20.312,22.5ZM7.516,15H5.484a.589.589,0,0,1-.609-.562V12.562A.589.589,0,0,1,5.484,12H7.516a.589.589,0,0,1,.609.562v1.875A.589.589,0,0,1,7.516,15Zm4.875,0H10.359a.589.589,0,0,1-.609-.562V12.562A.589.589,0,0,1,10.359,12h2.031a.589.589,0,0,1,.609.562v1.875A.589.589,0,0,1,12.391,15Zm4.875,0H15.234a.589.589,0,0,1-.609-.562V12.562A.589.589,0,0,1,15.234,12h2.031a.589.589,0,0,1,.609.562v1.875A.589.589,0,0,1,17.265,15Zm-4.875,4.5H10.359a.589.589,0,0,1-.609-.562V17.062a.589.589,0,0,1,.609-.562h2.031a.589.589,0,0,1,.609.562v1.875A.589.589,0,0,1,12.391,19.5Zm-4.875,0H5.484a.589.589,0,0,1-.609-.562V17.062a.589.589,0,0,1,.609-.562H7.516a.589.589,0,0,1,.609.562v1.875A.589.589,0,0,1,7.516,19.5Zm9.75,0H15.234a.589.589,0,0,1-.609-.562V17.062a.589.589,0,0,1,.609-.562h2.031a.589.589,0,0,1,.609.562v1.875A.589.589,0,0,1,17.265,19.5Z"/></svg>