<svg xmlns="http://www.w3.org/2000/svg" width="17.5" height="20" viewBox="0 0 17.5 20"><defs><style>.a{fill:#002036;}</style></defs><path class="a" d="M15.625,2.5H13.75V.313A.313.313,0,0,0,13.438,0h-.625A.313.313,0,0,0,12.5.313V2.5H5V.313A.313.313,0,0,0,4.688,0H4.063A.313.313,0,0,0,3.75.313V2.5H1.875A1.875,1.875,0,0,0,0,4.375v13.75A1.875,1.875,0,0,0,1.875,20h13.75A1.875,1.875,0,0,0,17.5,18.125V4.375A1.875,1.875,0,0,0,15.625,2.5Zm.625,15.625a.627.627,0,0,1-.625.625H1.875a.627.627,0,0,1-.625-.625V7.5h15Zm0-11.875h-15V4.375a.627.627,0,0,1,.625-.625h13.75a.627.627,0,0,1,.625.625ZM4.375,15h3.75a.627.627,0,0,0,.625-.625v-3.75A.627.627,0,0,0,8.125,10H4.375a.627.627,0,0,0-.625.625v3.75A.627.627,0,0,0,4.375,15ZM5,11.25H7.5v2.5H5Z"/></svg>