<svg xmlns="http://www.w3.org/2000/svg" width="50.958" height="54" viewBox="0 0 50.958 54"><defs><style>.a{fill:#5aceff;}</style></defs><g transform="translate(4285.006 12397)"><path class="a" d="M48.543,2.393,38.511.074a3.118,3.118,0,0,0-3.563,1.8l-4.628,10.8a3.121,3.121,0,0,0,.886,3.633L36.57,20.7A34.833,34.833,0,0,1,20.686,36.58L16.3,31.215a3.121,3.121,0,0,0-3.633-.886L1.875,34.957a3.106,3.106,0,0,0-1.8,3.553L2.383,48.532a3.108,3.108,0,0,0,3.036,2.418A45.523,45.523,0,0,0,50.951,5.418,3.09,3.09,0,0,0,48.543,2.393ZM5.478,47.766,3.189,37.853l10.689-4.578L19.8,40.521c10.311-4.837,15.894-10.44,20.711-20.711l-7.245-5.922L37.844,3.2l9.913,2.289A42.324,42.324,0,0,1,5.478,47.766Z" transform="translate(-4285 -12393.951)"/><path class="a" d="M64.162,61.236a2.451,2.451,0,1,0,2.451,2.451A2.451,2.451,0,0,0,64.162,61.236Zm.671-2.1h-1.4a1.05,1.05,0,0,1-1.05-1.05v-.033c0-6.157,6.779-5.569,6.779-9.4,0-1.752-1.555-3.52-5.028-3.52a5.785,5.785,0,0,0-5.183,2.512,1.048,1.048,0,0,1-1.422.208l-1.15-.8a1.049,1.049,0,0,1-.232-1.5,9.186,9.186,0,0,1,7.987-3.916c4.58,0,8.529,2.6,8.529,7.021,0,5.9-6.779,5.589-6.779,9.4v.033A1.05,1.05,0,0,1,64.834,59.135Z" transform="translate(-4335.803 -12438.629)"/></g></svg>