<svg xmlns="http://www.w3.org/2000/svg" width="22.857" height="20" viewBox="0 0 22.857 20"><defs><style>.camera{fill:#002036;}</style></defs><path class="camera" d="M11.429,48.786a5.357,5.357,0,1,1,5.357-5.357A5.361,5.361,0,0,1,11.429,48.786Zm0-9.286a3.929,3.929,0,1,0,3.929,3.929A3.934,3.934,0,0,0,11.429,39.5ZM10,43.429A1.433,1.433,0,0,1,11.429,42a.714.714,0,0,0,0-1.429,2.86,2.86,0,0,0-2.857,2.857.714.714,0,1,0,1.429,0Zm4.478-10a.362.362,0,0,1,.335.232l.987,2.625h4.915a.716.716,0,0,1,.714.714V49.857a.716.716,0,0,1-.714.714H2.143a.716.716,0,0,1-.714-.714V37a.716.716,0,0,1,.714-.714h4.92l.9-2.393a.716.716,0,0,1,.67-.464h5.848m0-1.429H8.629a2.14,2.14,0,0,0-2,1.388l-.554,1.469H2.143A2.143,2.143,0,0,0,0,37V49.857A2.143,2.143,0,0,0,2.143,52H20.714a2.143,2.143,0,0,0,2.143-2.143V37a2.143,2.143,0,0,0-2.143-2.143H16.786l-.638-1.7A1.775,1.775,0,0,0,14.478,32Z" transform="translate(0 -32)"/></svg>