<svg xmlns="http://www.w3.org/2000/svg" width="22.499" height="20" viewBox="0 0 22.499 20"><defs><style>.a{fill:#c92d4c;}</style></defs><path class="a" d="M10.581,6.25h1.387a.234.234,0,0,1,.234.242l-.293,7.656a.236.236,0,0,1-.234.227h-.8a.233.233,0,0,1-.234-.227l-.293-7.656a.234.234,0,0,1,.234-.242Zm.7,8.906A1.094,1.094,0,1,0,12.37,16.25,1.092,1.092,0,0,0,11.276,15.156Zm11,2.031L12.9.937a1.877,1.877,0,0,0-3.25,0L.28,17.188A1.877,1.877,0,0,0,1.9,20H20.651A1.875,1.875,0,0,0,22.272,17.188ZM20.651,18.75H1.9a.626.626,0,0,1-.543-.937l9.375-16.25a.625.625,0,0,1,1.082,0l9.375,16.25a.624.624,0,0,1-.539.938Z" transform="translate(-0.027)"/></svg>