<svg xmlns="http://www.w3.org/2000/svg" width="60" height="42" viewBox="0 0 60 42"><defs><style>.a{fill:#d5566b;}</style></defs><g transform="translate(0)"><path class="a" d="M59.25,3A.75.75,0,0,0,60,2.25V.75A.75.75,0,0,0,59.25,0H.75A.75.75,0,0,0,0,.75v1.5A.75.75,0,0,0,.75,3H1.5V39H.75a.75.75,0,0,0-.75.75v1.5A.75.75,0,0,0,.75,42h58.5a.75.75,0,0,0,.75-.75v-1.5a.75.75,0,0,0-.75-.75H58.5V3ZM21.844,33.621a1.5,1.5,0,0,1-1.5-1.5v-12a1.5,1.5,0,0,1,1.5-1.5H38.25a1.5,1.5,0,0,1,1.5,1.5v12a1.5,1.5,0,0,1-1.5,1.5ZM30,8.5c2.485,0,3.75.14,3.75,2.625v4.5H26.344v-4.5C26.344,8.635,27.515,8.5,30,8.5Zm7.5-5.308V15.621h-.75v-4.5c0-3.617-1.988-5.206-5.25-5.551V3h6.024a.773.773,0,0,0-.024.188Zm-9,2.383c-3.241.346-5.156,1.935-5.156,5.55v4.5H22.5V3h6Zm-9,10.708a4.5,4.5,0,0,0-2.156,3.844v12A4.5,4.5,0,0,0,19.5,35.966V39h-6V3h6Zm3,20.344h6V39h-6Zm9,0h6V39h-6Zm8.99-.6a4.494,4.494,0,0,0,2.26-3.9v-12a4.5,4.5,0,0,0-2.249-3.9V3.187A.773.773,0,0,0,40.476,3H46.5V39h-6V36.163a.991.991,0,0,0-.01-.141ZM4.5,3h6V39h-6Zm51,36h-6V3h6Z" transform="translate(0)"/><circle class="a" cx="3.829" cy="3.829" r="3.829" transform="translate(26.171 22.056)"/></g></svg>