<svg xmlns="http://www.w3.org/2000/svg" width="18" height="18" viewBox="0 0 18 18"><defs><style>.a{fill:#29abe2;}</style></defs><path class="a" d="M16.071,50H1.929A1.929,1.929,0,0,1,0,48.071V33.929A1.929,1.929,0,0,1,1.929,32H16.071A1.929,1.929,0,0,1,18,33.929V48.071A1.929,1.929,0,0,1,16.071,50ZM7.847,46.06l7.393-7.393a.643.643,0,0,0,0-.909l-.909-.909a.643.643,0,0,0-.909,0L7.393,42.878,4.578,40.063a.643.643,0,0,0-.909,0l-.909.909a.643.643,0,0,0,0,.909L6.938,46.06a.643.643,0,0,0,.909,0Z" transform="translate(0 -32)"/></svg>