<svg xmlns="http://www.w3.org/2000/svg" width="69.333" height="69.333" viewBox="0 0 69.333 69.333"><defs><style>.a{fill:#002036;}</style></defs><path class="a" d="M42.667,8A34.667,34.667,0,1,0,77.333,42.667,34.666,34.666,0,0,0,42.667,8Zm0,64.86A30.193,30.193,0,1,1,72.86,42.667,30.191,30.191,0,0,1,42.667,72.86Zm19.8-38.435L37.236,59.451a1.677,1.677,0,0,1-2.372-.01l-12-12.1a1.677,1.677,0,0,1,.01-2.372l1.191-1.181a1.677,1.677,0,0,1,2.372.01l9.642,9.72L58.92,30.852a1.677,1.677,0,0,1,2.372.01l1.181,1.191a1.677,1.677,0,0,1-.01,2.372Z" transform="translate(-8 -8)"/></svg>