<svg xmlns="http://www.w3.org/2000/svg" width="20" height="21.333" viewBox="0 0 20 21.333"><defs><style>.a{fill:#002036;}</style></defs><path class="a" d="M14.338,19.6l.592-6.867A6.884,6.884,0,0,1,12,7.333C12,3.4,15.671,0,18.333,0A1.638,1.638,0,0,1,20,1.6V19.729a1.638,1.638,0,0,1-1.667,1.6H16A1.634,1.634,0,0,1,14.338,19.6Zm-1-12.263c0,2.125,1.342,3.563,2.992,4.771l-.658,7.608A.3.3,0,0,0,16,20h2.333a.313.313,0,0,0,.333-.271V1.6a.313.313,0,0,0-.333-.271C16.475,1.333,13.333,4.075,13.333,7.333Zm-3.3-5.925A1.808,1.808,0,0,0,8.108,0,2.142,2.142,0,0,0,6.721.467,2.127,2.127,0,0,0,5.333,0,2.127,2.127,0,0,0,3.946.467,2.142,2.142,0,0,0,2.558,0,1.806,1.806,0,0,0,.638,1.408,40.02,40.02,0,0,0,0,6.246a4.836,4.836,0,0,0,2.958,4.613l-.475,8.783a1.6,1.6,0,0,0,1.6,1.692h2.5a1.6,1.6,0,0,0,1.6-1.692l-.475-8.783a4.842,4.842,0,0,0,2.958-4.613,40.019,40.019,0,0,0-.637-4.838ZM6.346,10l.508,9.713A.272.272,0,0,1,6.583,20h-2.5a.272.272,0,0,1-.271-.288L4.321,10A3.673,3.673,0,0,1,1.333,6.246,42.216,42.216,0,0,1,1.95,1.638c.067-.413,1.179-.4,1.229.008v5.1c.038.479,1.175.488,1.229.008l.308-5.121c.067-.4,1.162-.4,1.229,0l.308,5.121c.054.475,1.192.467,1.229-.008V1.65c.05-.413,1.162-.421,1.229-.008A42.216,42.216,0,0,1,9.329,6.25,3.664,3.664,0,0,1,6.346,10Z"/></svg>