<svg xmlns="http://www.w3.org/2000/svg" width="56.25" height="50" viewBox="0 0 56.25 50"><defs><style>.a{fill:#fff;}</style></defs><path class="a" d="M51.562,0H4.687A4.689,4.689,0,0,0,0,4.688V32.813A4.689,4.689,0,0,0,4.687,37.5h18.75l-2.344,9.375H14.062a1.563,1.563,0,1,0,0,3.125H42.187a1.562,1.562,0,1,0,0-3.125H35.156L32.812,37.5h18.75a4.689,4.689,0,0,0,4.688-4.687V4.688A4.689,4.689,0,0,0,51.562,0ZM24.316,46.875l1.563-6.25h4.492l1.563,6.25ZM53.125,32.813a1.567,1.567,0,0,1-1.563,1.562H4.687a1.567,1.567,0,0,1-1.562-1.562V4.688A1.567,1.567,0,0,1,4.687,3.125H51.562a1.567,1.567,0,0,1,1.563,1.563Z"/></svg>