<svg xmlns="http://www.w3.org/2000/svg" width="55" height="44" viewBox="0 0 55 44"><defs><style>.a{fill:#fff;}</style></defs><path class="a" d="M41.255,28.188a2.062,2.062,0,1,0,2.063,2.062A2.062,2.062,0,0,0,41.255,28.188Zm-22-11a2.063,2.063,0,1,0,2.063,2.063A2.062,2.062,0,0,0,19.255,17.188Zm8.25,0a2.063,2.063,0,1,0,2.063,2.063A2.062,2.062,0,0,0,27.5,17.188Zm-16.5,0a2.063,2.063,0,1,0,2.063,2.063A2.062,2.062,0,0,0,11,17.188Zm8.25,8.25A2.063,2.063,0,1,0,21.317,27.5,2.062,2.062,0,0,0,19.255,25.438Zm0-16.5A2.063,2.063,0,1,0,21.317,11,2.062,2.062,0,0,0,19.255,8.938ZM49.5,16.5H37.764a5.6,5.6,0,0,0-.915-1.25L23.254,1.657a5.656,5.656,0,0,0-8,0L1.661,15.25a5.657,5.657,0,0,0,0,8L15.255,36.843a5.656,5.656,0,0,0,8,0l4.25-4.25V38.5A5.5,5.5,0,0,0,33,44H49.5A5.5,5.5,0,0,0,55,38.5V22A5.5,5.5,0,0,0,49.5,16.5ZM21.254,34.843a2.828,2.828,0,0,1-4,0L3.661,21.25a2.828,2.828,0,0,1,0-4L17.255,3.657a2.828,2.828,0,0,1,4,0L34.848,17.25a2.828,2.828,0,0,1,0,4Zm31,3.657a2.754,2.754,0,0,1-2.75,2.75H33a2.754,2.754,0,0,1-2.75-2.75V29.843l6.593-6.593a5.64,5.64,0,0,0,1.657-4h11A2.754,2.754,0,0,1,52.255,22Z" transform="translate(-0.005)"/></svg>