<svg xmlns="http://www.w3.org/2000/svg" width="31.026" height="21" viewBox="0 0 31.026 21">
  <g id="signature" transform="translate(0.5 -95.482)">
    <path id="Union_3" data-name="Union 3" d="M2.412,20A2.412,2.412,0,0,1,0,17.588V2.412A2.412,2.412,0,0,1,2.412,0H17.588A2.412,2.412,0,0,1,20,2.412V4.888l4.125-4.1a2.7,2.7,0,0,1,3.819,0l1.292,1.292a2.7,2.7,0,0,1,0,3.819l-8.27,8.3A8.7,8.7,0,0,1,20,15v2.585A2.412,2.412,0,0,1,17.588,20ZM1.669,2.412V17.588a.744.744,0,0,0,.743.744H17.588a.745.745,0,0,0,.744-.744V14.139l.018-.011a6.735,6.735,0,0,0,1.433-1.1l.128-.129.089-.09h0l6.035-6.067L23.281,3.993,20,7.257,18.35,8.9l-.018.018v-6.5a.744.744,0,0,0-.744-.743H2.412A.744.744,0,0,0,1.669,2.412ZM25.3,1.971,24.2,3.076l2.752,2.752,1.1-1.1a1.034,1.034,0,0,0,0-1.461L26.764,1.971a1.033,1.033,0,0,0-1.46,0ZM13.345,16.682a2.242,2.242,0,0,1-1.971-1.243.584.584,0,0,0-1.054-.018l-.4.8a.835.835,0,0,1-1.538-.109L7.507,13.48l-.554,1.663a2.25,2.25,0,0,1-2.136,1.539H4.171a.834.834,0,1,1,0-1.669h.647a.58.58,0,0,0,.552-.4l.95-2.849a1.252,1.252,0,0,1,2.375,0l.724,2.169a2.341,2.341,0,0,1,3.441.739.578.578,0,0,0,.488.327,8.233,8.233,0,0,1,1.625-4.953,9.375,9.375,0,0,1,.85-.99l2.511-2.5V8.915L17,10.242a6.729,6.729,0,0,0-1.984,4.771h0a6.721,6.721,0,0,0,3.319-.875v1.842a8.45,8.45,0,0,1-3.319.7Z" transform="translate(0 95.982)" stroke="rgba(0,0,0,0)" stroke-miterlimit="10" stroke-width="1"/>
  </g>
</svg>
