<svg xmlns="http://www.w3.org/2000/svg" width="67.842" height="44" viewBox="0 0 67.842 44"><defs><style>.a{fill:#fff;}</style></defs><g transform="translate(4 0.101)"><g transform="translate(0 -0.101)"><path class="a" d="M18.735,12.377A6.891,6.891,0,0,0,17.587,2.285a9.586,9.586,0,0,0-11.6,0A6.891,6.891,0,0,0,4.837,12.377,6.475,6.475,0,0,0,0,18.362v9.014a4.719,4.719,0,0,0,3.929,4.412v7.95c0,2.512,2.332,4.547,5.205,4.55h5.3c2.874,0,5.2-2.038,5.205-4.55v-7.95a4.719,4.719,0,0,0,3.929-4.412V18.362A6.475,6.475,0,0,0,18.735,12.377Zm-6.949-9.3c3.038,0,5.5,2.152,5.5,4.807s-2.462,4.807-5.5,4.807-5.5-2.152-5.5-4.807,2.462-4.807,5.5-4.807Zm8.643,24.295a1.946,1.946,0,0,1-2.063,1.8H16.5V39.738a1.946,1.946,0,0,1-2.063,1.8h-5.3a1.946,1.946,0,0,1-2.063-1.8V29.179H5.205a1.946,1.946,0,0,1-2.063-1.8V18.362a3.892,3.892,0,0,1,4.125-3.606h.919a9.767,9.767,0,0,0,7.2,0H16.3a3.892,3.892,0,0,1,4.125,3.606Z" transform="translate(-4 -0.288)"/><path class="a" d="M466.009,29.172l-3.92-14.1a4.116,4.116,0,0,0-1.65-2.284,4.635,4.635,0,0,0-.447-.276,6.892,6.892,0,0,0-.418-10.49,9.561,9.561,0,0,0-12.008,0,6.892,6.892,0,0,0-.418,10.49,4.168,4.168,0,0,0-2.1,2.557l-3.92,14.106c-.709,2.547,1.51,5.074,4.587,5.074h1.272v5.065c0,2.511,2.332,4.547,5.205,4.55h2.75c2.873,0,5.2-2.038,5.205-4.55V34.247h1.277C464.5,34.247,466.718,31.719,466.009,29.172ZM453.57,2.655c3.038,0,5.5,2.152,5.5,4.807s-2.462,4.807-5.5,4.807-5.5-2.152-5.5-4.807S450.533,2.655,453.57,2.655ZM461.427,31.5h-4.42v7.812a1.946,1.946,0,0,1-2.063,1.8H452.2a1.946,1.946,0,0,1-2.063-1.8V31.5h-4.42a1.665,1.665,0,0,1-1.228-.517,1.245,1.245,0,0,1-.3-1.162L448.109,15.7a1.541,1.541,0,0,1,1.532-1.069h1.213a9.829,9.829,0,0,0,5.431,0H457.5a1.541,1.541,0,0,1,1.532,1.069l3.929,14.118a1.245,1.245,0,0,1-.3,1.161A1.665,1.665,0,0,1,461.427,31.5Z" transform="translate(-402.299 0.101)"/><path class="a" d="M236.169,175.663h0a4.544,4.544,0,0,0-5.9-.453,6.613,6.613,0,0,0-13.027,0,4.559,4.559,0,0,0-5.9,6.916l4.783,4.781v12.385a4.066,4.066,0,0,0,4.06,4.061H221.2a4.027,4.027,0,0,0,2.554-.9,4.027,4.027,0,0,0,2.554.9h1.02a4.066,4.066,0,0,0,4.06-4.061V186.907l4.783-4.781A4.576,4.576,0,0,0,236.169,175.663Zm-13.924,16v7.63a1.04,1.04,0,0,1-1.043,1.035h-1.017a1.039,1.039,0,0,1-1.038-1.039V185.655l-5.666-5.666a1.549,1.549,0,1,1,2.19-2.19l5.156,5.156h5.856l5.156-5.156a1.549,1.549,0,1,1,2.19,2.19l-5.666,5.666v13.637a1.039,1.039,0,0,1-1.038,1.039h-1.017a1.04,1.04,0,0,1-1.039-1.039v-7.626Zm1.511-11.733a3.589,3.589,0,1,1,3.589-3.589A3.589,3.589,0,0,1,223.756,179.933Z" transform="translate(-193.719 -159.391)"/></g></g></svg>