<svg xmlns="http://www.w3.org/2000/svg" width="18" height="24" viewBox="0 0 18 24"><defs><style>.a{fill:#fff;}</style></defs><path class="a" d="M6.375,15h-.75a.376.376,0,0,0-.375.375v4.5a.376.376,0,0,0,.375.375h.75a.376.376,0,0,0,.375-.375v-4.5A.376.376,0,0,0,6.375,15Zm3-4.5h-.75a.376.376,0,0,0-.375.375v9a.376.376,0,0,0,.375.375h.75a.376.376,0,0,0,.375-.375v-9A.376.376,0,0,0,9.375,10.5Zm1.875,3.375v6a.376.376,0,0,0,.375.375h.75a.376.376,0,0,0,.375-.375v-6a.376.376,0,0,0-.375-.375h-.75A.376.376,0,0,0,11.25,13.875Zm6.089-9.282L13.407.661A2.25,2.25,0,0,0,11.819,0H2.25A2.257,2.257,0,0,0,0,2.254v19.5A2.25,2.25,0,0,0,2.25,24h13.5A2.25,2.25,0,0,0,18,21.75V6.186A2.261,2.261,0,0,0,17.339,4.593ZM12,1.528a.737.737,0,0,1,.347.2L16.28,5.656a.737.737,0,0,1,.2.347H12ZM16.5,21.75a.752.752,0,0,1-.75.75H2.25a.752.752,0,0,1-.75-.75V2.254A.756.756,0,0,1,2.25,1.5H10.5V6.378A1.12,1.12,0,0,0,11.626,7.5H16.5Z"/></svg>