<svg xmlns="http://www.w3.org/2000/svg" width="24.001" height="24" viewBox="0 0 24.001 24"><defs><style>.a{fill:#fff;}</style></defs><path class="a" d="M23.4,16.294A11.992,11.992,0,1,0,12,32,12,12,0,0,0,23.4,16.294Zm-2.081,8.4-4.563.561-.861-1.2,1.631-5.037,1.4-.435,3.368,3.145a10.644,10.644,0,0,1-.973,2.971ZM1.72,21.718l3.358-3.14,1.4.435,1.64,5.018L7.241,25.25l-4.558-.561a9.77,9.77,0,0,1-.963-2.971Zm9.508-8.744v1.592L7.072,17.581l-1.524-.474-.871-4.544a10.444,10.444,0,0,1,2.516-1.829Zm7.229,4.132-1.524.474-4.156-3.015V12.974l4.045-2.245a10.427,10.427,0,0,1,2.516,1.834l-.881,4.544ZM8.035,18.8,12,15.921,15.975,18.8l-1.5,4.645H9.554Zm14.4.944-2.473-2.308.644-3.3a10.263,10.263,0,0,1,1.829,5.613Zm-7.481-9.75L12,11.634,9.051,10A9.466,9.466,0,0,1,14.959,9.994ZM3.4,14.1l.639,3.334-2.473,2.3a10.425,10.425,0,0,1,1.142-4.481A10.222,10.222,0,0,1,3.4,14.1Zm.363,12.29,3.324.406L8.5,29.832a10.387,10.387,0,0,1-4.737-3.44Zm6.673,3.934-1.94-4.161.842-1.171h5.332l.837,1.171-1.94,4.161A9.848,9.848,0,0,1,10.435,30.326Zm5.071-.494L16.918,26.8l3.339-.411A10.34,10.34,0,0,1,15.505,29.832Z" transform="translate(0.003 -8)"/></svg>