<svg xmlns="http://www.w3.org/2000/svg" width="27" height="24" viewBox="0 0 27 24"><defs><style>.a{fill:#fff;}</style></defs><path class="a" d="M24.75,6H21.408a3.875,3.875,0,0,0,.717-2.25A3.632,3.632,0,0,0,18.633,0C16.65,0,15.5,1.191,13.5,4.491,11.5,1.191,10.35,0,8.367,0A3.632,3.632,0,0,0,4.875,3.75,3.875,3.875,0,0,0,5.592,6H2.25A2.25,2.25,0,0,0,0,8.25v13.5A2.25,2.25,0,0,0,2.25,24h22.5A2.25,2.25,0,0,0,27,21.75V8.25A2.25,2.25,0,0,0,24.75,6Zm-10.3-.169c2.32-3.9,3.094-4.331,4.186-4.331a2.135,2.135,0,0,1,1.992,2.25A2.135,2.135,0,0,1,18.633,6H14.344ZM8.367,1.5c1.1,0,1.866.427,4.186,4.331l.1.169H8.363A2.135,2.135,0,0,1,6.37,3.75,2.142,2.142,0,0,1,8.367,1.5ZM25.5,21.75a.751.751,0,0,1-.75.75H2.25a.751.751,0,0,1-.75-.75v-1.5h24Zm0-3H1.5v-3h24Zm0-4.5H1.5v-6a.75.75,0,0,1,.75-.75h9.44l-3.7,3.7a.375.375,0,0,0,0,.53l.53.53a.375.375,0,0,0,.53,0L13.5,7.81l4.455,4.455a.375.375,0,0,0,.53,0l.53-.53a.375.375,0,0,0,0-.53l-3.7-3.7h9.44a.75.75,0,0,1,.75.75Z"/></svg>