<svg xmlns="http://www.w3.org/2000/svg" width="30.202" height="24" viewBox="0 0 30.202 24"><defs><style>.a{fill:#002036;}</style></defs><path class="a" d="M29.8,80.427H.4a.4.4,0,0,1-.4-.4V78.4A.4.4,0,0,1,.4,78H29.8a.4.4,0,0,1,.4.4v1.618A.4.4,0,0,1,29.8,80.427Zm0,10.787H.4a.4.4,0,0,1-.4-.4V89.191a.4.4,0,0,1,.4-.4H29.8a.4.4,0,0,1,.4.4v1.618A.4.4,0,0,1,29.8,91.214ZM29.8,102H.4a.4.4,0,0,1-.4-.4V99.978a.4.4,0,0,1,.4-.4H29.8a.4.4,0,0,1,.4.4V101.6A.4.4,0,0,1,29.8,102Z" transform="translate(0 -78)"/></svg>