<svg xmlns="http://www.w3.org/2000/svg" width="27.001" height="24" viewBox="0 0 27.001 24"><defs><style>.a{fill:#fff;}</style></defs><path class="a" d="M26.856,10.283l-2.883-2.32V3.351a.376.376,0,0,0-.375-.375h-.75a.376.376,0,0,0-.375.375v3.4l-7.94-6.4a1.68,1.68,0,0,0-2.119,0L.091,10.283a.315.315,0,0,0-.047.445l.666.82a.32.32,0,0,0,.45.047l1.814-1.462V23.225a.752.752,0,0,0,.75.75h19.5a.752.752,0,0,0,.75-.75V10.138l1.819,1.467a.32.32,0,0,0,.45-.047l.666-.82a.335.335,0,0,0-.052-.455ZM22.473,22.475h-18V8.924l8.8-7.1a.311.311,0,0,1,.394,0l8.807,7.1ZM12.953,9.421A3.561,3.561,0,0,0,8.036,9.06a3.884,3.884,0,0,0-.262,5.564l5.1,5.348a.817.817,0,0,0,1.2,0l5.1-5.348a3.88,3.88,0,0,0-.262-5.564A3.6,3.6,0,0,0,14,9.421l-.525.548Zm2.1,1.045a2.154,2.154,0,0,1,2.9-.267,2.366,2.366,0,0,1,.159,3.38l-4.64,4.865-4.64-4.865a2.37,2.37,0,0,1,.159-3.38,2.127,2.127,0,0,1,2.9.267l1.58,1.655Z" transform="translate(0.027 0.025)"/></svg>