<svg xmlns="http://www.w3.org/2000/svg" width="22.5" height="20" viewBox="0 0 22.5 20"><defs><style>.a{fill:#b2bbc2;}</style></defs><path class="a" d="M20,64H2.5A2.5,2.5,0,0,0,0,66.5v15A2.5,2.5,0,0,0,2.5,84H20a2.5,2.5,0,0,0,2.5-2.5v-15A2.5,2.5,0,0,0,20,64Zm.833,17.5a.834.834,0,0,1-.833.833H2.5a.834.834,0,0,1-.833-.833v-15a.834.834,0,0,1,.833-.833H20a.834.834,0,0,1,.833.833Zm-15-8.75a2.917,2.917,0,1,0-2.917-2.917A2.917,2.917,0,0,0,5.833,72.75Zm0-4.167a1.25,1.25,0,1,1-1.25,1.25A1.251,1.251,0,0,1,5.833,68.583Zm10.783,1.2-4.949,4.949-1.616-1.616a1.25,1.25,0,0,0-1.768,0L3.7,77.7a1.25,1.25,0,0,0-.366.884v1.458a.625.625,0,0,0,.625.625H18.542a.625.625,0,0,0,.625-.625v-9.59a2.015,2.015,0,0,0-.558-.931C18.12,69.032,17.1,69.295,16.616,69.783ZM17.5,79H5v-.244l4.167-4.167,2.5,2.5L17.5,71.256V79Z" transform="translate(0 -64)"/></svg>