<svg xmlns="http://www.w3.org/2000/svg" width="31.25" height="50" viewBox="0 0 31.25 50"><defs><style>.a{fill:#f47216;}</style></defs><path class="a" d="M28.9,15.625H17.627l4.16-12.676A2.353,2.353,0,0,0,19.522,0H5.459A2.347,2.347,0,0,0,3.135,2.031L.01,25.469a2.348,2.348,0,0,0,2.324,2.656H13.926l-4.5,18.994a2.341,2.341,0,0,0,4.307,1.709L30.918,19.141A2.339,2.339,0,0,0,28.9,15.625ZM13.692,42.666l3.271-13.828.908-3.848H3.223L6.143,3.125H18.438L14.658,14.648l-1.348,4.1H27.539Z" transform="translate(0.011)"/></svg>