<svg xmlns="http://www.w3.org/2000/svg" width="49.5" height="44" viewBox="0 0 49.5 44"><defs><style>.a{fill:#fff;}</style></defs><path class="a" d="M48.125,13.75a1.379,1.379,0,0,0-.516.1L33,19.25l-.885-.309c2-3,3.635-6.119,3.635-8.37A10.787,10.787,0,0,0,24.75,0a10.793,10.793,0,0,0-11,10.57,9.253,9.253,0,0,0,.894,3.489l-12.916,4.5A2.747,2.747,0,0,0,0,21.115v21.51A1.369,1.369,0,0,0,1.891,43.9L16.5,38.5l14.781,5.216a5.529,5.529,0,0,0,3.438.017l13.054-4.546A2.743,2.743,0,0,0,49.5,36.635V15.125A1.373,1.373,0,0,0,48.125,13.75Zm-33,22.327L2.741,40.648l-.112-19.5,12.5-4.34ZM24.75,2.75A8.054,8.054,0,0,1,33,10.57c0,2.32-3.274,7.64-8.25,13.475C19.774,18.21,16.5,12.891,16.5,10.57a8.054,8.054,0,0,1,8.25-7.82Zm6.875,38.173-13.75-4.855V19.663a83.9,83.9,0,0,0,5.818,7.365,1.418,1.418,0,0,0,2.114,0c1.1-1.246,2.9-3.36,4.666-5.749l1.152.4Zm2.75.017V21.673L46.759,17.1l.112,19.5ZM26.813,11a2.063,2.063,0,1,0-2.062,2.063A2.063,2.063,0,0,0,26.813,11Z"/></svg>