<svg xmlns="http://www.w3.org/2000/svg" width="44.003" height="44" viewBox="0 0 44.003 44"><defs><style>.a{fill:#fff;}</style></defs><path class="a" d="M3.092,2.878a10.517,10.517,0,0,1,14.648.183l2.472,2.465a10.4,10.4,0,0,1,3.065,7.312L42.943,34.962a4.115,4.115,0,0,1-.172,5.647L40.583,42.79a4.148,4.148,0,0,1-5.666.172L21.991,31.481v11.83A.687.687,0,0,1,21.3,44H19.917a.687.687,0,0,1-.687-.687V29.045l-6.518-5.679a10.469,10.469,0,0,1-7.336-3.054L3.219,18.164C-.966,13.994-1.193,6.942,3.092,2.878ZM36.739,40.9a1.382,1.382,0,0,0,1.891-.058l2.186-2.182a1.375,1.375,0,0,0,.062-1.879L22.024,15.574l-6.566,6.542ZM7.327,18.367a7.7,7.7,0,0,0,5.407,2.249h.327l7.458-7.433v-.325A7.642,7.642,0,0,0,18.261,7.47l-.95-.945L6.376,17.419Zm-2.86-2.934L15.318,4.62A7.678,7.678,0,0,0,4.467,15.433Z" transform="translate(0.022 0.001)"/></svg>