<svg xmlns="http://www.w3.org/2000/svg" width="15" height="24" viewBox="0 0 15 24"><defs><style>.a{fill:#fff;}</style></defs><path class="a" d="M9.188,21H5.813a.564.564,0,0,1-.563-.562v-.375a.564.564,0,0,1,.563-.562H9.188a.564.564,0,0,1,.563.563v.375A.564.564,0,0,1,9.188,21ZM15,2.25v19.5A2.251,2.251,0,0,1,12.75,24H2.25A2.251,2.251,0,0,1,0,21.75V2.25A2.251,2.251,0,0,1,2.25,0h10.5A2.251,2.251,0,0,1,15,2.25Zm-1.5,0a.752.752,0,0,0-.75-.75H2.25a.752.752,0,0,0-.75.75v19.5a.752.752,0,0,0,.75.75h10.5a.752.752,0,0,0,.75-.75Z"/></svg>