<svg xmlns="http://www.w3.org/2000/svg" width="30" height="18" viewBox="0 0 30 18"><defs><style>.a{fill:#fff;}</style></defs><path class="a" d="M28.5,64H1.5A1.5,1.5,0,0,0,0,65.5v15A1.5,1.5,0,0,0,1.5,82h27A1.5,1.5,0,0,0,30,80.5v-15A1.5,1.5,0,0,0,28.5,64Zm-27,1.5h3a3,3,0,0,1-3,3Zm0,15v-3a3,3,0,0,1,3,3Zm27,0h-3a3,3,0,0,1,3-3Zm0-4.5A4.507,4.507,0,0,0,24,80.5H6A4.507,4.507,0,0,0,1.5,76V70A4.507,4.507,0,0,0,6,65.5H24A4.507,4.507,0,0,0,28.5,70Zm0-7.5a3,3,0,0,1-3-3h3ZM15,67c-2.9,0-5.25,2.686-5.25,6S12.1,79,15,79s5.25-2.686,5.25-6S17.9,67,15,67Zm0,10.5c-2.067,0-3.75-2.02-3.75-4.5s1.683-4.5,3.75-4.5,3.75,2.02,3.75,4.5S17.067,77.5,15,77.5Zm1.5-3h-.75V70.38A.376.376,0,0,0,15.375,70h-.642a1.132,1.132,0,0,0-.623.188l-.717.478a.376.376,0,0,0-.1.52l.417.623a.376.376,0,0,0,.52.1l.023-.014v2.6H13.5a.376.376,0,0,0-.375.375v.75A.376.376,0,0,0,13.5,76h3a.376.376,0,0,0,.375-.375v-.75A.369.369,0,0,0,16.5,74.5Z" transform="translate(0 -64)"/></svg>