<svg xmlns="http://www.w3.org/2000/svg" width="32.5" height="20.75" viewBox="0 0 32.5 20.75"><defs><style>.a{fill:#fff;}</style></defs><path class="a" d="M16.25,37.187a5.2,5.2,0,0,0,0,10.375,5.2,5.2,0,0,0,0-10.375Zm0,8.893a3.737,3.737,0,0,1,0-7.411,3.737,3.737,0,0,1,0,7.411ZM31.543,33.04A16.314,16.314,0,0,0,25.632,32c-6.255,0-12.509,2.887-18.764,2.887a23.627,23.627,0,0,1-5.23-.71A1.553,1.553,0,0,0,0,35.65V50.345a1.472,1.472,0,0,0,.957,1.364A16.3,16.3,0,0,0,6.868,52.75c6.255,0,12.509-2.888,18.764-2.888a23.619,23.619,0,0,1,5.23.711A1.553,1.553,0,0,0,32.5,49.1V34.405A1.472,1.472,0,0,0,31.543,33.04ZM1.673,35.671a17.676,17.676,0,0,0,3.182.6,3.131,3.131,0,0,1-3.194,2.8ZM1.625,50.345l.007-1.97A3.139,3.139,0,0,1,4.85,51.127a13.455,13.455,0,0,1-3.225-.782Zm29.2-1.266a17.654,17.654,0,0,0-3.172-.6,3.139,3.139,0,0,1,3.183-2.71l-.011,3.307Zm.016-4.8a4.708,4.708,0,0,0-4.8,4.1,41.476,41.476,0,0,0-10.187,1.476,37.055,37.055,0,0,1-9.364,1.383,4.692,4.692,0,0,0-4.852-4.36l.021-6.33A4.7,4.7,0,0,0,6.47,36.364a41.517,41.517,0,0,0,10.176-1.476A37.1,37.1,0,0,1,26,33.5a4.688,4.688,0,0,0,4.862,4.45l-.021,6.33Zm.026-7.818a3.132,3.132,0,0,1-3.229-2.843,13.454,13.454,0,0,1,3.235.783Z" transform="translate(0 -32)"/></svg>