<svg xmlns="http://www.w3.org/2000/svg" width="20" height="20" viewBox="0 0 20 20"><defs><style>.a{fill:#002036;}</style></defs><path class="a" d="M10.81,12.835H7.1a.322.322,0,0,0-.323.323v9.677a.322.322,0,0,0,.323.323h.645a.322.322,0,0,0,.323-.323v-2.9h2.9a3.552,3.552,0,0,0,3.531-3.9A3.656,3.656,0,0,0,10.81,12.835Zm.157,5.806h-2.9V14.125h2.9a2.258,2.258,0,0,1,0,4.516ZM10,8A10,10,0,1,0,20,18,10,10,0,0,0,10,8Zm0,18.71A8.71,8.71,0,1,1,18.71,18,8.72,8.72,0,0,1,10,26.71Z" transform="translate(0 -8)"/></svg>