<svg xmlns="http://www.w3.org/2000/svg" width="20" height="20" viewBox="0 0 20 20"><defs><style>.a{fill:#002036;}</style></defs><path class="a" d="M19.268,2.2,17.8.733a2.5,2.5,0,0,0-3.536,0L.5,14.5l-.5,4.46a.938.938,0,0,0,1.035,1.035l4.46-.5L19.268,5.733a2.5,2.5,0,0,0,0-3.536ZM15.55,7.684,6.8,16.436V15.079H4.922V13.2H3.565l8.752-8.752L15.55,7.684ZM4.928,18.305l-2.3.256L1.44,17.378l.256-2.3.776-.776H3.829v1.875H5.7V17.53ZM18.384,4.849,16.434,6.8,13.2,3.568l1.951-1.951a1.249,1.249,0,0,1,1.768,0l1.464,1.464A1.249,1.249,0,0,1,18.384,4.849Z" transform="translate(-0.001 -0.001)"/></svg>