<svg xmlns="http://www.w3.org/2000/svg" width="32.5" height="20.75" viewBox="0 0 32.5 20.75"><defs><style>.a{fill:#fff;}</style></defs><path class="a" d="M24.375,42.375a4.677,4.677,0,0,0,4.875-4.446,4.677,4.677,0,0,0-4.875-4.446A4.677,4.677,0,0,0,19.5,37.929,4.677,4.677,0,0,0,24.375,42.375Zm0-7.411a2.977,2.977,0,1,1,0,5.929,2.977,2.977,0,1,1,0-5.929ZM9.75,42.375a5.452,5.452,0,0,0,5.687-5.187A5.452,5.452,0,0,0,9.75,32a5.452,5.452,0,0,0-5.687,5.187A5.452,5.452,0,0,0,9.75,42.375Zm0-8.893a3.9,3.9,0,0,1,4.062,3.705A3.9,3.9,0,0,1,9.75,40.893a3.9,3.9,0,0,1-4.062-3.705A3.9,3.9,0,0,1,9.75,33.482ZM13.817,43.3c-1.7,0-2.118.556-4.068.556S7.378,43.3,5.682,43.3A5.783,5.783,0,0,0,1,45.473a4.985,4.985,0,0,0-1,2.978v2.075A2.338,2.338,0,0,0,2.437,52.75H17.062A2.338,2.338,0,0,0,19.5,50.527V48.452a4.985,4.985,0,0,0-1-2.978A5.783,5.783,0,0,0,13.817,43.3Zm4.057,7.225a.782.782,0,0,1-.812.741H2.437a.782.782,0,0,1-.812-.741V48.452A3.613,3.613,0,0,1,2.341,46.3a4.109,4.109,0,0,1,3.336-1.519c1.391,0,1.889.556,4.073.556s2.681-.556,4.068-.556A4.109,4.109,0,0,1,17.154,46.3a3.613,3.613,0,0,1,.716,2.149v2.075Zm13.8-5.322a4.823,4.823,0,0,0-3.905-1.811c-1.412,0-1.767.463-3.392.463s-1.98-.463-3.392-.463a5.363,5.363,0,0,0-1.935.375A4.507,4.507,0,0,1,20.074,45a3.631,3.631,0,0,1,.909-.12c1.107,0,1.523.463,3.392.463s2.285-.463,3.392-.463a3.147,3.147,0,0,1,2.559,1.158,2.768,2.768,0,0,1,.554,1.653v1.723a.391.391,0,0,1-.406.371H21.125a6.07,6.07,0,0,1-.081,1.482h9.425A1.948,1.948,0,0,0,32.5,49.415V47.687A4.156,4.156,0,0,0,31.672,45.2Z" transform="translate(0 -32)"/></svg>