<svg xmlns="http://www.w3.org/2000/svg" width="44" height="44" viewBox="0 0 44 44"><defs><style>.a{fill:#fff;}</style></defs><path class="a" d="M30.049,14.923l-.972-.972a.688.688,0,0,0-.972,0L13.951,28.1a.688.688,0,0,0,0,.972l.972.972a.688.688,0,0,0,.972,0L30.048,15.895a.687.687,0,0,0,0-.972ZM20.625,16.5A4.125,4.125,0,1,0,16.5,20.625,4.129,4.129,0,0,0,20.625,16.5Zm-5.5,0A1.375,1.375,0,1,1,16.5,17.875,1.377,1.377,0,0,1,15.125,16.5ZM27.5,23.375A4.125,4.125,0,1,0,31.625,27.5,4.129,4.129,0,0,0,27.5,23.375Zm0,5.5A1.375,1.375,0,1,1,28.875,27.5,1.377,1.377,0,0,1,27.5,28.875ZM44,22a8.507,8.507,0,0,0-4.263-7.348,8.465,8.465,0,0,0-10.39-10.39,8.464,8.464,0,0,0-14.7,0,8.465,8.465,0,0,0-10.39,10.39,8.464,8.464,0,0,0,0,14.7,8.465,8.465,0,0,0,10.39,10.39,8.464,8.464,0,0,0,14.7,0,8.465,8.465,0,0,0,10.39-10.39A8.507,8.507,0,0,0,44,22Zm-7.829,5.87c.455,1.014,2.535,4.649-.559,7.743-2.484,2.484-4.941,1.83-7.743.559-.4,1.04-1.487,5.079-5.87,5.079-4.477,0-5.56-4.254-5.87-5.079-2.8,1.272-5.268,1.908-7.743-.559-3.163-3.154-.937-6.918-.559-7.743-1.04-.4-5.079-1.487-5.079-5.87,0-4.477,4.254-5.56,5.079-5.87-.455-1.014-2.535-4.649.559-7.743,3.162-3.171,6.944-.92,7.743-.559.4-1.04,1.487-5.079,5.87-5.079,4.477,0,5.56,4.254,5.87,5.079,1.014-.455,4.649-2.535,7.743.559,3.162,3.154.937,6.918.559,7.743,1.04.4,5.079,1.487,5.079,5.87C41.25,26.477,37,27.56,36.171,27.87Z"/></svg>