<svg xmlns="http://www.w3.org/2000/svg" width="24.568" height="22.013" viewBox="0 0 24.568 22.013"><defs><style>.a{fill:#002036;}</style></defs><path class="a" d="M19.871,7.948H15.141L10.79.334A.663.663,0,0,0,10.215,0H6.557a.662.662,0,0,0-.637.844l2.03,7.1H5.3L3.513,5.563a.662.662,0,0,0-.53-.265H.665a.662.662,0,0,0-.642.823l1.3,4.475-1.3,4.475a.662.662,0,0,0,.642.823H2.983a.662.662,0,0,0,.53-.265L5.3,13.246H7.95l-2.03,7.1a.662.662,0,0,0,.637.844h3.658a.663.663,0,0,0,.575-.334l4.351-7.614h4.731c1.463,0,3.974-1.186,3.974-2.649S21.335,7.948,19.871,7.948Zm0,3.974h-5.5L9.831,19.869h-2.4l2.271-7.948H4.639L2.652,14.571h-1.1L2.707,10.6,1.548,6.623h1.1L4.639,9.272H9.706L7.436,1.325h2.4l4.541,7.948h5.5c1.086,0,2.592.9,2.649,1.321C22.463,11.021,20.958,11.921,19.871,11.921Z" transform="matrix(0.999, -0.035, 0.035, 0.999, -0.003, 0.832)"/></svg>