<svg xmlns="http://www.w3.org/2000/svg" width="30" height="21" viewBox="0 0 30 21"><defs><style>.a{fill:#fff;}</style></defs><path class="a" d="M26.227,46.4a1.907,1.907,0,0,1-1.385.6l-5.956-.008a3.462,3.462,0,0,1-1.521-.357L4.095,40.058a8.1,8.1,0,0,1-3.2-2.727C.047,36.053-.159,34.974.273,34.125c.543-1.072,1.969-1.442,3.408-1.442a8.294,8.294,0,0,1,3.692.921l4.346,2.156L21.5,32.172A1.2,1.2,0,0,1,22.126,32a1.219,1.219,0,0,1,.537.126l3,1.486a1.175,1.175,0,0,1,.647.906,1.125,1.125,0,0,1-.537,1.092l-6.4,3.942,3.935,1.95,3.13-1.541a1.212,1.212,0,0,1,1.071,0l1.831.908a1.176,1.176,0,0,1,.371,1.828Zm.746-5.035-3.667,1.805-7.028-3.483,8.167-5.008-2.31-1.145-10.5,3.849L6.708,34.95a6.817,6.817,0,0,0-3.028-.765c-.764,0-1.843.169-2.073.622-.16.315.039.95.533,1.7a6.607,6.607,0,0,0,2.618,2.209l13.271,6.575a1.952,1.952,0,0,0,.859.2l5.953.008a.411.411,0,0,0,.295-.125l3.155-3.353ZM.376,51.5h29.2a.375.375,0,0,1,.375.375v.75a.375.375,0,0,1-.375.375H.376A.375.375,0,0,1,0,52.625v-.75A.375.375,0,0,1,.376,51.5Z" transform="translate(-0.001 -32)"/></svg>