<svg xmlns="http://www.w3.org/2000/svg" width="32.5" height="24" viewBox="0 0 32.5 24"><defs><style>.a{fill:#fff;}</style></defs><path class="a" d="M.406,22.5H32.093a.391.391,0,0,1,.406.375v.75a.391.391,0,0,1-.406.375H.406A.391.391,0,0,1,0,23.62v-.75A.391.391,0,0,1,.406,22.5Zm2.618-8.318a8.676,8.676,0,0,1,3.887-2.052l4.923-1.251,4.9-8.684c.111-.2.211-.4.314-.6a1.261,1.261,0,0,1,.815-.638C18.835.7,21.491,0,21.491,0A1.318,1.318,0,0,1,22.441.4,1.221,1.221,0,0,1,22.7,1.543L20.55,8.661l4.433-1.126,1.365-3.178a1.257,1.257,0,0,1,.851-.715,13.344,13.344,0,0,1,2.407-.569,1.246,1.246,0,0,1,1.27,1.185L30.86,9.284a1.916,1.916,0,0,1-.692,1.416L25.43,14.6a3.786,3.786,0,0,1-1.5.764L8.9,19.181a9.9,9.9,0,0,1-2.431.315,8.015,8.015,0,0,1-2.017-.25c-1.568-.407-2.5-1.085-2.758-2.016S1.881,15.273,3.025,14.177Zm.247,2.675c.1.362.694.708,1.625.95a7.368,7.368,0,0,0,3.576-.068L23.5,13.916a2.113,2.113,0,0,0,.834-.427l4.739-3.9a.462.462,0,0,0,.161-.339l.005-4.574-1.44.366L26.2,8.781l-8.016,2.036,2.768-9.124-2.478.655-5.523,9.8L7.342,13.572a7.029,7.029,0,0,0-3.148,1.646c-.693.665-1.03,1.26-.923,1.635Z" transform="translate(0 0.004)"/></svg>