<svg xmlns="http://www.w3.org/2000/svg" width="276.01" height="53.795" viewBox="0 0 276.01 53.795"><defs><style>.a{fill:#fff;}</style></defs><g transform="translate(0)"><path class="a" d="M339.513,50.554a2.229,2.229,0,0,0,1.61-.668,2.3,2.3,0,0,0,.676-1.61,2.269,2.269,0,0,0-.676-1.61,2.229,2.229,0,0,0-1.61-.668,2.286,2.286,0,1,0,0,4.563m-1.907-2.286a1.9,1.9,0,1,1,1.907,1.9,1.867,1.867,0,0,1-1.344-.555,1.892,1.892,0,0,1-.563-1.344" transform="translate(-65.789 -8.977)"/><path class="a" d="M341,49.562l-.072-.113v-.515a.571.571,0,0,0-.089-.346l-.153-.121.193-.185a.709.709,0,0,0,.1-.386.628.628,0,0,0-.37-.628,1.207,1.207,0,0,0-.483-.089H338.94v2.551h.443V48.685h.692l.274.04a.29.29,0,0,1,.145.266V49.6l.04.1h.491v-.153Zm-.507-1.61a.346.346,0,0,1-.113.29.587.587,0,0,1-.338.08h-.7V47.6h.749l.241.048a.306.306,0,0,1,.161.306" transform="translate(-66.15 -9.208)"/><path class="a" d="M105.553,15.562H93.2l-.089.08V44.52l.089.089H98.2l.089-.089v-25.8h5.722c2.085,0,3.219,2.093,3.219,5.916s-1.143,5.916-3.219,5.916h-3.445l-.089.089v2.978l.089.089h4.95a6.326,6.326,0,0,0,4.668-2.2,10.117,10.117,0,0,0,2.237-6.865c0-5.537-2.712-9.111-6.905-9.111" transform="translate(-18.172 -3.031)"/><path class="a" d="M126.067,15.57h-5l-.089.08V44.528l.089.089h5l.1-.089V15.65Z" transform="translate(-23.611 -3.039)"/><path class="a" d="M150.076,24.277l-.1-.1h-8.926c-7.992,0-9.014,5.883-9.014,11.034v4.467c0,3.831,2.414,6.616,5.634,6.616H142.5l.1-.089V43.214l-.1-.089h-3.469c-.8,0-1.883-.354-1.883-3.091V35.206c0-3.219.306-5.239.958-6.4a2.922,2.922,0,0,1,2.873-1.465h3.9l.04.048V46.208l.08.089h5.006l.089-.089V24.277Z" transform="translate(-25.769 -4.719)"/><path class="a" d="M196.606,27.659l-2.463-.193c-1.843-.153-3.219-1.175-3.219-4.217,0-3.541,1.61-4.5,3.71-4.5h6.817l.089-.089V15.65l-.089-.08h-7.525c-4.66,0-7.976,2.736-7.976,8.185v.209c0,4.322,2.648,7.421,6.592,7.718l2.463.185c1.859.153,3.018,1.811,3.018,4.354v.716c0,1.61-.386,4.5-3.783,4.5h-7.091l-.089.08v2.994l.089.089h8.789c2.72,0,7.243-1.1,7.243-8.483a9.786,9.786,0,0,0-1.843-6.294,6.366,6.366,0,0,0-4.749-2.181" transform="translate(-36.291 -3.039)"/><path class="a" d="M245.788,24.277l-.089-.1h-8.885c-7.992,0-9.014,5.883-9.014,11.034v4.467c0,3.831,2.414,6.616,5.674,6.616H238.3l.089-.089V43.214l-.089-.089h-3.477c-.8,0-1.875-.354-1.875-3.091V35.206c0-3.219.3-5.239.958-6.4a2.913,2.913,0,0,1,2.865-1.465h3.815V46.208l.089.089h4.99l.1-.089Z" transform="translate(-44.459 -4.719)"/><path class="a" d="M222.582,23.271h-5.417V19.609l-.089-.089H212.07l-.08.089V38.772c0,3.839,2.414,6.616,5.634,6.616h3.59l.089-.089V42.3l-.089-.089h-2.205c-.563,0-1.875,0-1.875-2.865V26.474h5.417l.089-.089V23.367Z" transform="translate(-41.373 -3.81)"/><path class="a" d="M266,23.271h-5.417V19.609l-.089-.089h-5l-.1.089V38.772c0,3.839,2.415,6.616,5.682,6.616h3.582l.089-.089V42.3l-.089-.089H262.45c-.547,0-1.867,0-1.867-2.865V26.474h5.425l.08-.089V23.367Z" transform="translate(-49.846 -3.81)"/><path class="a" d="M277.615,24.18h-5.006l-.089.1V46.208l.089.089h5.006l.089-.089V24.277Z" transform="translate(-53.187 -4.719)"/><path class="a" d="M277.615,15.57h-5.006l-.089.08v4.193l.089.089h5.006l.089-.089V15.65Z" transform="translate(-53.187 -3.039)"/><path class="a" d="M319.662,24.18h-8.934l-.089.1V46.208l.1.089h5.022l.089-.089V27.383h3.823a2.994,2.994,0,0,1,2.865,1.352c.66,1.078.974,2.962.974,5.94V46.24l.081.089H328.6l.089-.089V35.214c0-5.151-1.022-11.034-9.006-11.034" transform="translate(-60.627 -4.719)"/><path class="a" d="M292.525,24.18c-8.354,0-9.425,5.916-9.425,11.066s1.07,11.066,9.417,11.066,9.433-5.916,9.433-11.066-1.062-11.066-9.425-11.066m3.179,17.5a4.185,4.185,0,0,1-6.358,0c-.716-1.175-1.054-3.219-1.054-6.439h0c0-3.807.475-5.972,1.521-7a4.668,4.668,0,0,1,5.425,0c1.046,1.03,1.521,3.219,1.513,7.026,0,3.219-.322,5.264-1.046,6.439" transform="translate(-55.252 -4.719)"/><path class="a" d="M157.936,24.18l-.056.08,7.412,21.747v.177l-4.169,10.769.048.089h4.354l.121-.089L178.685,24.26l-.048-.08H173.88l-.121.08-5.521,14.294h-.072L163.313,24.26l-.121-.08Z" transform="translate(-30.813 -4.719)"/><path class="a" d="M31.08,0V48.161l10.9,3.461V11.268c0-1.891.845-3.163,2.205-2.72,1.779.491,2.125,2.237,2.125,4.129v16.1c6.8,3.284,12.137,0,12.137-8.66,0-8.853-3.123-12.829-12.354-15.992A131.129,131.129,0,0,0,31.08,0" transform="translate(-6.065)"/><path class="a" d="M47.19,52.3l17.553-6.245c2-.708,2.3-1.722.684-2.245a11.879,11.879,0,0,0-6.527.33L47.19,48.264V41.713l.676-.233a40.724,40.724,0,0,1,8.113-1.714,34.608,34.608,0,0,1,15.123,1.8c5.135,1.61,5.714,4.024,4.41,5.634S71,50.027,71,50.027L47.19,58.614Z" transform="translate(-9.209 -7.725)"/><path class="a" d="M5.022,50.979C-.258,49.49-1.135,46.4,1.271,44.613a25.755,25.755,0,0,1,5.972-2.889L22.865,36.17v6.3L11.6,46.5c-2,.716-2.294,1.722-.684,2.245a11.912,11.912,0,0,0,6.535-.33L22.9,46.5V52.13l-1.078.185a35.413,35.413,0,0,1-16.8-1.336" transform="translate(0.001 -7.059)"/><path class="a" d="M78.439,65.277a3.219,3.219,0,0,0,2.237-5.505,3.155,3.155,0,0,0-2.27-.942,3.219,3.219,0,0,0-2.27,5.473,3.155,3.155,0,0,0,2.27.942m-2.672-3.219a2.672,2.672,0,1,1,.781,1.883,2.64,2.64,0,0,1-.8-1.883" transform="translate(-14.679 -11.482)"/><path class="a" d="M80.464,63.9l-.1-.161V63a.8.8,0,0,0-.121-.467l-.217-.177.274-.266a1.03,1.03,0,0,0,.137-.539.885.885,0,0,0-.531-.885,1.61,1.61,0,0,0-.676-.121H77.51v3.582h.628V62.658h.982l.378.056.2.378v.99h.692v-.209Zm-.708-2.3L79.6,62l-.475.113h-.99V61.105h1.054l.346.064a.427.427,0,0,1,.217.427" transform="translate(-15.127 -11.817)"/></g></svg>