<svg xmlns="http://www.w3.org/2000/svg" width="38.5" height="44" viewBox="0 0 38.5 44"><defs><style>.a{fill:#fff;}</style></defs><path class="a" d="M.687,13.75H30.25V12.375a6.859,6.859,0,0,0-5.784-6.763A4.13,4.13,0,0,1,20.625,8.25h-5.5a4.125,4.125,0,0,1,0-8.25h5.5a4.112,4.112,0,0,1,3.91,2.87A9.6,9.6,0,0,1,33,12.375V13.75h4.812a.69.69,0,0,1,.688.688v1.375a.69.69,0,0,1-.687.687H32.991v.155L30.25,41.25h4.812a.69.69,0,0,1,.687.688v1.375a.69.69,0,0,1-.687.687H3.437a.69.69,0,0,1-.687-.687V41.938a.69.69,0,0,1,.687-.687h4.8L5.5,16.5H.687A.69.69,0,0,1,0,15.813V14.438A.69.69,0,0,1,.687,13.75Zm19.937-11h-5.5a1.375,1.375,0,0,0,0,2.75h5.5a1.375,1.375,0,0,0,0-2.75ZM11,41.25H27.509V41.1L30.25,16.5H8.259ZM24.4,29.743l.481,2.81a2.169,2.169,0,0,1-2.123,2.518,2.168,2.168,0,0,1-1-.249L19.241,33.5l-2.509,1.323a2.152,2.152,0,0,1-3.12-2.269l.481-2.8-2.037-1.985a2.153,2.153,0,0,1,1.195-3.67l2.81-.413,1.255-2.552a2.148,2.148,0,0,1,3.85,0l1.263,2.552,2.81.413a2.147,2.147,0,0,1,1.195,3.661Zm-3.79-3.549-1.358-2.75-1.358,2.75-3.034.447,2.2,2.148-.516,3.025,2.707-1.435,2.716,1.427L21.45,28.78l2.2-2.148-3.042-.438Z"/></svg>