<svg xmlns="http://www.w3.org/2000/svg" width="30" height="30" viewBox="0 0 30 30"><defs><style>.a{fill:#0071BC;}</style></defs><path class="a" d="M25.313,11.25h-.937V6.4a1.876,1.876,0,0,0-.549-1.326L19.3.549A1.875,1.875,0,0,0,17.973,0H7.411A1.832,1.832,0,0,0,5.625,1.875V11.25H4.687A4.688,4.688,0,0,0,0,15.937v5.625a.937.937,0,0,0,.938.938H5.625v6.563A.937.937,0,0,0,6.563,30H23.437a.937.937,0,0,0,.938-.937V22.5h4.688A.937.937,0,0,0,30,21.562V15.937A4.688,4.688,0,0,0,25.313,11.25Zm-6.563-8.6,2.974,2.974H18.75ZM7.507,1.875h9.368v3.75A1.875,1.875,0,0,0,18.75,7.5H22.5v3.75H7.5l.006-9.375ZM22.5,28.125H7.5V22.5h15Zm5.625-7.5H1.875V15.937a2.815,2.815,0,0,1,2.812-2.812H25.313a2.815,2.815,0,0,1,2.813,2.812Zm-4.688-5.156a1.406,1.406,0,1,0,1.406,1.406A1.406,1.406,0,0,0,23.437,15.469Z"/></svg>