<svg xmlns="http://www.w3.org/2000/svg" width="21.88" height="25" viewBox="0 0 21.88 25"><defs><style>.a{fill:#fff;}</style></defs><path class="a" d="M17.188,15.625A4.675,4.675,0,0,0,13.682,17.2L9.019,14.287a4.7,4.7,0,0,0,0-3.574L13.682,7.8a4.648,4.648,0,1,0-.83-1.323L8.188,9.39a4.685,4.685,0,1,0,0,6.221l4.663,2.915a4.629,4.629,0,0,0-.352,1.787,4.688,4.688,0,1,0,4.683-4.688Zm0-14.063a3.125,3.125,0,1,1-3.125,3.125A3.128,3.128,0,0,1,17.188,1.563ZM4.688,15.625A3.125,3.125,0,1,1,7.813,12.5,3.128,3.128,0,0,1,4.688,15.625Zm12.5,7.813a3.125,3.125,0,1,1,3.125-3.125A3.128,3.128,0,0,1,17.188,23.438Z"/></svg>