<svg xmlns="http://www.w3.org/2000/svg" width="44.001" height="44" viewBox="0 0 44.001 44"><defs><style>.a{fill:#fff;}</style></defs><path class="a" d="M.4,40.021a1.364,1.364,0,0,1,1.942,0A4.191,4.191,0,0,0,7,40.906l11.18-5.99a4.035,4.035,0,0,1-.988-1l-.043-.069-.043-.069L13.643,27.9a5.514,5.514,0,0,1,.73-6.875l4.254-4.254L7.344,22.945a4.122,4.122,0,1,1-3.687-7.373l3.962-1.994.868-2.6c-.086,0-.163.026-.241.026a5.5,5.5,0,1,1,5.474-5.758,6.646,6.646,0,0,1,4.262.249L25.15,8.37a6.994,6.994,0,0,1,1.22.67l3.438-1.968a3.351,3.351,0,0,1,1.813-3.231l.954,1.873,2.973-.6a.452.452,0,0,1,.387.782L33.692,7.863a.032.032,0,0,0-.009.026l.988,1.925a3.339,3.339,0,0,1-3.523-.327l-2.793,1.6a6.761,6.761,0,0,1,.988,2.295,6.844,6.844,0,0,1-1.873,6.239l-5.749,5.749,2.389,4.056a4.043,4.043,0,0,1,.619,1.985l17.239-9.247a1.377,1.377,0,0,1,1.306,2.423L8.229,43.364a6.951,6.951,0,0,1-7.82-1.4A1.357,1.357,0,0,1,.4,40.021ZM8.246,2.75A2.75,2.75,0,1,0,11,5.5,2.753,2.753,0,0,0,8.246,2.75ZM16.96,8.061a4.143,4.143,0,0,0-5.44,2.527l-1.65,4.941L4.878,18.021a1.374,1.374,0,0,0,1.229,2.458l2.432-1.212,3.42-1.959a2.724,2.724,0,0,0,.516-.911l1.555-4.675,4.305,1.925,5.173-2.965L16.96,8.061Zm4.8,22.808-3.5-5.938,7.253-7.262a4.132,4.132,0,0,0,1.126-3.747,4.009,4.009,0,0,0-.662-1.487l-4.529,2.6,1.951.868L16.324,22.98a2.759,2.759,0,0,0-.344,3.472l3.5,5.938A1.373,1.373,0,0,0,21.764,30.869Z" transform="translate(0.005)"/></svg>