<svg xmlns="http://www.w3.org/2000/svg" width="34.29" height="30" viewBox="0 0 34.29 30"><defs><style>.a{fill:#29abe2;}</style></defs><path class="a" d="M20.3,41.643H19.224a1.066,1.066,0,0,0-.958.589L17.081,44.6,15.9,42.232a1.066,1.066,0,0,0-.958-.589H13.867A1.075,1.075,0,0,0,12.8,42.714v6.964a.537.537,0,0,0,.536.536H14.4a.537.537,0,0,0,.536-.536V45.112L16.6,48.848a.535.535,0,0,0,.958,0l1.661-3.737v4.567a.537.537,0,0,0,.536.536h1.071a.537.537,0,0,0,.536-.536V42.714A1.065,1.065,0,0,0,20.3,41.643ZM9.005,44.489a.343.343,0,0,1-.141-.254c0-.208.3-.442.7-.442h.824a.537.537,0,0,0,.536-.536V42.185a.537.537,0,0,0-.536-.536H9.568a2.723,2.723,0,0,0-2.839,2.585,2.487,2.487,0,0,0,.891,1.882l1.467,1.259a.343.343,0,0,1,.141.254c0,.208-.3.442-.7.442H7.706a.537.537,0,0,0-.536.536v1.071a.537.537,0,0,0,.536.536H8.53a2.723,2.723,0,0,0,2.839-2.585,2.487,2.487,0,0,0-.891-1.882L9.005,44.489Zm16.071,0a.343.343,0,0,1-.141-.254c0-.208.3-.442.7-.442h.824a.537.537,0,0,0,.536-.536V42.185a.537.537,0,0,0-.536-.536h-.824a2.723,2.723,0,0,0-2.839,2.585,2.487,2.487,0,0,0,.891,1.882l1.467,1.259a.343.343,0,0,1,.141.254c0,.208-.3.442-.7.442h-.817a.537.537,0,0,0-.536.536v1.071a.537.537,0,0,0,.536.536H24.6a2.723,2.723,0,0,0,2.839-2.585,2.487,2.487,0,0,0-.891-1.882ZM17.081,32C7.612,32-.062,38.234-.062,45.929A12.31,12.31,0,0,0,3.48,54.386a16.993,16.993,0,0,1-3.107,4.9A1.608,1.608,0,0,0,1.539,62a16.248,16.248,0,0,0,9.315-3.1,20.759,20.759,0,0,0,6.228.958c9.469,0,17.143-6.234,17.143-13.929S26.55,32,17.081,32Zm0,25.714a18.47,18.47,0,0,1-5.571-.857l-1.018-.321-.871.616A14.449,14.449,0,0,1,2.751,59.8a18.065,18.065,0,0,0,2.732-4.661l.475-1.252-.917-.978a10.143,10.143,0,0,1-2.953-6.984c0-6.5,6.73-11.786,15-11.786s15,5.29,15,11.786S25.351,57.714,17.081,57.714Z" transform="translate(0.066 -32)"/></svg>