<svg xmlns="http://www.w3.org/2000/svg" width="26" height="24" viewBox="0 0 26 24"><defs><style>.a{fill:#fff;}</style></defs><path class="a" d="M25.85,10.267l-2.017-.777-.841-1.863a.281.281,0,0,0-.484,0l-.841,1.863-2.017.777a.242.242,0,0,0,0,.448l2.017.777.841,1.863a.281.281,0,0,0,.485,0l.841-1.863,2.017-.777a.242.242,0,0,0,0-.448ZM18.5,12.519,13.172,11.8,10.789,7.338a1.167,1.167,0,0,0-1.046-.6,1.15,1.15,0,0,0-1.041.6L6.32,11.8,1,12.519A1.06,1.06,0,0,0,.353,14.36l3.855,3.471-.914,4.9a1.02,1.02,0,0,0,.255.879A1.209,1.209,0,0,0,4.441,24a1.225,1.225,0,0,0,.543-.126L9.748,21.56l4.764,2.314a1.267,1.267,0,0,0,.538.126,1.215,1.215,0,0,0,.892-.384,1.024,1.024,0,0,0,.261-.876l-.909-4.9,3.855-3.471A1.065,1.065,0,0,0,18.5,12.519ZM13.548,17.31l.894,4.835-4.7-2.286-4.7,2.286.894-4.835L2.146,13.882l5.25-.707,2.352-4.4,2.346,4.4,5.252.707Zm7.942-13.5-2.468-1.14L17.789.383a.881.881,0,0,0-1.454,0L15.1,2.663,12.635,3.8a.748.748,0,0,0-.448.671.767.767,0,0,0,.448.68L15.1,6.293l1.233,2.28a.825.825,0,0,0,.727.417.815.815,0,0,0,.727-.417l1.233-2.28,2.468-1.14a.726.726,0,0,0,0-1.341ZM18.053,5.06a.793.793,0,0,0-.365.338l-.625,1.159L16.437,5.4a.821.821,0,0,0-.365-.338l-1.254-.581L16.072,3.9a.79.79,0,0,0,.365-.338L17.062,2.4l.625,1.159a.813.813,0,0,0,.365.338l1.254.582Z"/></svg>