<svg xmlns="http://www.w3.org/2000/svg" width="20" height="17.5" viewBox="0 0 20 17.5"><defs><style>.a{fill:#002036;}</style></defs><path class="a" d="M18.125,35.75H13.75V33.875A1.877,1.877,0,0,0,11.875,32H8.125A1.877,1.877,0,0,0,6.25,33.875V35.75H1.875A1.875,1.875,0,0,0,0,37.625v10A1.875,1.875,0,0,0,1.875,49.5h16.25A1.875,1.875,0,0,0,20,47.625v-10A1.875,1.875,0,0,0,18.125,35.75ZM7.5,33.875a.626.626,0,0,1,.625-.625h3.75a.626.626,0,0,1,.625.625V35.75h-5ZM3.75,48.25H1.875a.627.627,0,0,1-.625-.625v-10A.627.627,0,0,1,1.875,37H3.75Zm11.25,0H5V37H15Zm3.75-.625a.627.627,0,0,1-.625.625H16.25V37h1.875a.627.627,0,0,1,.625.625Z" transform="translate(0 -32)"/></svg>