<svg xmlns="http://www.w3.org/2000/svg" width="44" height="44" viewBox="0 0 44 44"><defs><style>.a{fill:#fff;}</style></defs><path class="a" d="M42.681,24.551A6.9,6.9,0,0,0,44,20.236,6.351,6.351,0,0,0,37.75,14H31.722A12.5,12.5,0,0,0,33.5,8c0-5.019-2-8-7.125-8C23.8,0,22.841,3.259,22.351,5.777c-.293,1.5-.569,2.926-1.42,3.777C18.905,11.58,15.812,16.5,13.955,17.5a3.528,3.528,0,0,1-.69.191A2.746,2.746,0,0,0,11,16.5H2.75A2.75,2.75,0,0,0,0,19.25v22A2.75,2.75,0,0,0,2.75,44H11a2.75,2.75,0,0,0,2.75-2.75V40.5C16.543,40.5,22.4,44,29,44c.473,0,3.236,0,3.525,0,5.095,0,7.928-3.084,7.763-7.717a7.136,7.136,0,0,0,1.566-5.767A8.033,8.033,0,0,0,42.681,24.551ZM2.75,41.25v-22H11v22Zm36.439-17.5c1.374,1,1.374,5.126-.482,6.073a4.109,4.109,0,0,1-1.29,5.328c.713,4.515-1.629,6.068-4.917,6.1-.285,0-3.2,0-3.5,0-6.267,0-11.579-3.5-15.25-3.5v-17.5c3.241,0,6.214-5.839,9.125-8.75,2.625-2.625,1.75-7,3.5-8.75C30.75,2.749,30.75,5.8,30.75,8c0,3.626-2.625,5.25-2.625,8.75H37.75a3.615,3.615,0,0,1,3.5,3.5c.009,1.75-.688,3.126-2.061,3.5ZM8.938,37.125a2.063,2.063,0,1,1-2.063-2.062A2.062,2.062,0,0,1,8.938,37.125Z"/></svg>