<svg xmlns="http://www.w3.org/2000/svg" width="17.5" height="20" viewBox="0 0 17.5 20"><defs><style>.trash{fill:#002036;}</style></defs><path class="trash" d="M17.188,2.5H13.125L11.812.75a1.875,1.875,0,0,0-1.5-.75H7.188a1.875,1.875,0,0,0-1.5.75L4.375,2.5H.313A.313.313,0,0,0,0,2.813v.625a.312.312,0,0,0,.313.312h.738l1.3,14.543A1.875,1.875,0,0,0,4.215,20h9.07a1.875,1.875,0,0,0,1.867-1.707l1.3-14.543h.738a.313.313,0,0,0,.313-.312V2.813A.313.313,0,0,0,17.188,2.5Zm-10.5-1a.629.629,0,0,1,.5-.25h3.125a.629.629,0,0,1,.5.25l.75,1H5.937Zm7.219,16.68a.621.621,0,0,1-.621.57H4.215a.621.621,0,0,1-.621-.57L2.3,3.75H15.2Z"/></svg>