<svg xmlns="http://www.w3.org/2000/svg" width="44.001" height="44" viewBox="0 0 44.001 44"><defs><style>.a{fill:#fff;}</style></defs><path class="a" d="M26.069,30.25a4.125,4.125,0,1,0,4.125,4.125A4.126,4.126,0,0,0,26.069,30.25Zm0,5.5a1.375,1.375,0,1,1,1.375-1.375A1.379,1.379,0,0,1,26.069,35.75Zm-2.75-12.375A4.125,4.125,0,1,0,19.194,27.5,4.126,4.126,0,0,0,23.319,23.375ZM19.194,24.75a1.375,1.375,0,1,1,1.375-1.375A1.379,1.379,0,0,1,19.194,24.75ZM43.368,39.566l-7.262-9.341a2.753,2.753,0,0,0,1.71-4.486L26.292,11.9l2.4-1.195a2.746,2.746,0,0,0,0-4.916L25.845,4.366,24.419,1.521A2.784,2.784,0,0,0,21.944,0a2.739,2.739,0,0,0-2.458,1.521L18.06,4.366,15.215,5.792a2.746,2.746,0,0,0,0,4.916l2.4,1.195L6.088,25.738A2.753,2.753,0,0,0,7.8,30.224L.52,39.566A2.746,2.746,0,0,0,2.694,44h38.5a2.752,2.752,0,0,0,2.174-4.434ZM16.444,8.25l3.67-1.83,1.83-3.67,1.83,3.67,3.67,1.83-3.67,1.83-1.83,3.67-1.83-3.67Zm-13.75,33L13.385,27.5H8.194L19.16,14.334l.318.645a2.746,2.746,0,0,0,4.916,0l.318-.645L35.694,27.5H30.5L41.194,41.25Z" transform="translate(0.061)"/></svg>