<svg xmlns="http://www.w3.org/2000/svg" width="19.997" height="20" viewBox="0 0 19.997 20"><defs><style>.a{fill:#002036;}</style></defs><path class="a" d="M16.248,9.429V9.117a.47.47,0,0,1,.469-.469h.312a.47.47,0,0,1,.469.469v.312a.47.47,0,0,1-.469.469h-.312A.47.47,0,0,1,16.248,9.429ZM20,5.523V16.772a1.875,1.875,0,0,1-1.875,1.875H17.5v1.289h-.625l-.43-1.289H3.554l-.43,1.289H2.5V18.647H1.875A1.875,1.875,0,0,1,0,16.772V5.523A1.875,1.875,0,0,1,1.875,3.648H8.128L5.206,1.028A.625.625,0,0,1,6.038.094L10,3.648h.031L13.955.1a.625.625,0,0,1,.836.93l-2.9,2.621h6.23A1.875,1.875,0,0,1,20,5.523Zm-1.25,0a.627.627,0,0,0-.625-.625H1.875a.627.627,0,0,0-.625.625V16.772a.627.627,0,0,0,.625.625H18.123a.627.627,0,0,0,.625-.625Zm-10,1.914c-2.687,0-4.148.09-4.894.168-.051.562-.105,1.621-.105,3.543,0,1.972.055,3.046.105,3.625.75.074,2.207.164,4.894.164s4.144-.09,4.894-.164c.051-.574.105-1.652.105-3.625,0-1.922-.055-2.98-.105-3.543-.746-.078-2.207-.168-4.894-.168m0-1.25c5,0,5.937.312,5.937.312S15,6.5,15,11.147c0,4.726-.312,4.726-.312,4.726s-.937.312-5.937.312-5.937-.312-5.937-.312-.312,0-.312-4.726C2.5,6.5,2.812,6.5,2.812,6.5s.937-.312,5.937-.312Zm7.968,6.21h.312a.47.47,0,0,0,.469-.469v-.312a.47.47,0,0,0-.469-.469h-.312a.47.47,0,0,0-.469.469v.312A.47.47,0,0,0,16.717,12.4Z" transform="translate(0 0.065)"/></svg>