<svg xmlns="http://www.w3.org/2000/svg" width="55" height="44" viewBox="0 0 55 44"><defs><style>.a{fill:#fff;}</style></defs><path class="a" d="M38.112,1.554a25.636,25.636,0,0,0-28.833,8.1,1.374,1.374,0,0,0,.638,2.124L30.21,19.163,22.171,41.25H.688A.687.687,0,0,0,0,41.938v1.375A.687.687,0,0,0,.688,44H48.813a.687.687,0,0,0,.687-.687V41.938a.687.687,0,0,0-.687-.688H25.1l7.7-21.147,20.346,7.405a1.38,1.38,0,0,0,.475.084,1.361,1.361,0,0,0,1.378-1.3A25.671,25.671,0,0,0,38.112,1.554ZM12.733,9.876A23.143,23.143,0,0,1,29.341,2.75q1.007,0,2.008.089C28.18,4.83,25.01,8.565,22.492,13.428L12.733,9.876Zm27.088,9.86L25.116,14.383c3.474-6.569,7.96-10.422,11.012-10.422a3.011,3.011,0,0,1,1.042.177c1.681.612,2.919,3.022,3.314,6.445A28.715,28.715,0,0,1,39.822,19.736Zm2.647.963c1.189-5.291,1.175-10.165.06-13.719a22.864,22.864,0,0,1,9.677,17.264L42.469,20.7Z"/></svg>