<svg xmlns="http://www.w3.org/2000/svg" width="22" height="22" viewBox="0 0 22 22"><defs><style>.a{fill:#002036;}</style></defs><path class="a" d="M1396.57,14597a1.571,1.571,0,0,1-1.572-1.571,6.286,6.286,0,0,1,6.286-6.284h.233a5.424,5.424,0,0,1,1.74.332,8.526,8.526,0,0,0,5.482,0,5.449,5.449,0,0,1,1.743-.333h.231a6.285,6.285,0,0,1,6.286,6.285,1.571,1.571,0,0,1-1.572,1.571Zm0-1.571h18.857a4.719,4.719,0,0,0-4.714-4.714h-.231a3.91,3.91,0,0,0-1.239.251,10.115,10.115,0,0,1-6.49,0,3.893,3.893,0,0,0-1.236-.25h-.233A4.718,4.718,0,0,0,1396.57,14595.429Zm3.143-14.143a6.286,6.286,0,1,1,6.286,6.285A6.286,6.286,0,0,1,1399.713,14581.286Zm1.571,0a4.714,4.714,0,1,0,4.714-4.715A4.714,4.714,0,0,0,1401.284,14581.286Z" transform="translate(-1394.999 -14575)"/></svg>