<svg xmlns="http://www.w3.org/2000/svg" width="43.75" height="50" viewBox="0 0 43.75 50"><defs><style>.a{fill:#fff;}</style></defs><path class="a" d="M31.25,34.375h-.459a10.827,10.827,0,0,0-3.467.664,16.969,16.969,0,0,1-10.9,0,10.783,10.783,0,0,0-3.459-.662H12.5A12.5,12.5,0,0,0,0,46.875,3.125,3.125,0,0,0,3.125,50h37.5a3.125,3.125,0,0,0,3.125-3.125A12.5,12.5,0,0,0,31.25,34.375ZM3.125,46.875A9.385,9.385,0,0,1,12.5,37.5h.463a7.768,7.768,0,0,1,2.457.5,20.093,20.093,0,0,0,12.906,0,7.805,7.805,0,0,1,2.465-.5h.459a9.385,9.385,0,0,1,9.375,9.375Zm1.563-25A1.562,1.562,0,0,0,6.25,20.313V18.75a15.625,15.625,0,0,1,31.25,0v1.563a7.821,7.821,0,0,1-7.813,7.812H26.563A3.125,3.125,0,0,0,23.438,25H20.313a3.125,3.125,0,1,0,0,6.25h9.375A10.951,10.951,0,0,0,40.625,20.313V18.75a18.75,18.75,0,0,0-37.5,0v1.563A1.562,1.562,0,0,0,4.688,21.875Zm17.188-12.5a9.333,9.333,0,0,1,6.956,15.6c0,.009.013.015.018.023h.839a4.677,4.677,0,0,0,3.96-2.205A12.484,12.484,0,1,0,14.1,28.464c-.006-.114-.034-.223-.034-.339A6.177,6.177,0,0,1,14.935,25a9.334,9.334,0,0,1,6.94-15.625Z"/></svg>