<svg xmlns="http://www.w3.org/2000/svg" width="21" height="24" viewBox="0 0 21 24"><defs><style>.a{fill:#fff;}</style></defs><path class="a" d="M10.5,12a6,6,0,1,0-6-6A6,6,0,0,0,10.5,12Zm0-10.5A4.5,4.5,0,1,1,6,6,4.507,4.507,0,0,1,10.5,1.5Zm4.308,12.759-1.861,6.459-1.589-4.767L12.53,14.78A.75.75,0,0,0,12,13.5H9a.749.749,0,0,0-.53,1.28l1.172,1.172L8.053,20.719,6.192,14.264A6.288,6.288,0,0,0,0,20.55v1.2A2.251,2.251,0,0,0,2.25,24h16.5A2.251,2.251,0,0,0,21,21.75v-1.2A6.3,6.3,0,0,0,14.808,14.259ZM2.25,22.5a.752.752,0,0,1-.75-.75v-1.2a4.817,4.817,0,0,1,3.6-4.636l1.9,6.586Zm6.792,0L10.5,18.122,11.958,22.5ZM19.5,21.75a.752.752,0,0,1-.75.75H13.992l1.9-6.586a4.817,4.817,0,0,1,3.6,4.636v1.2Z"/></svg>