<svg xmlns="http://www.w3.org/2000/svg" width="54.655" height="48.583" viewBox="0 0 54.655 48.583"><defs><style>.a{fill:#b2bbc2;}</style></defs><path class="a" d="M-2832.428,14779.582a6.072,6.072,0,0,1-6.072-6.072v-36.438a6.072,6.072,0,0,1,6.072-6.072h42.511a6.072,6.072,0,0,1,6.072,6.072v36.438a6.072,6.072,0,0,1-6.072,6.072Zm-2.025-42.511v36.438a2.025,2.025,0,0,0,2.025,2.021h42.511a2.022,2.022,0,0,0,2.021-2.021v-36.438a2.023,2.023,0,0,0-2.021-2.021h-42.511A2.027,2.027,0,0,0-2834.453,14737.071Zm13.954,28.846v-20.541a2.375,2.375,0,0,1,3.524-2.077l17.385,10.571a2.376,2.376,0,0,1,0,4.146l-17.385,9.974a2.348,2.348,0,0,1-1.146.3A2.374,2.374,0,0,1-2820.5,14765.917Zm3.16-18.082v15.693a.593.593,0,0,0,.89.512l13.283-7.622a.594.594,0,0,0,.011-1.02l-13.286-8.068a.583.583,0,0,0-.311-.092A.591.591,0,0,0-2817.339,14747.835Z" transform="translate(2838.5 -14730.999)"/></svg>