<svg xmlns="http://www.w3.org/2000/svg" width="38.5" height="44" viewBox="0 0 38.5 44"><defs><style>.a{fill:#fff;}</style></defs><path class="a" d="M33.8,12.143l1.5-1.5a1.032,1.032,0,0,0,0-1.461l-.49-.49a1.032,1.032,0,0,0-1.461,0l-1.5,1.5A19.182,19.182,0,0,0,20.53,5.534V2.75h2.148A1.034,1.034,0,0,0,23.71,1.719V1.031A1.034,1.034,0,0,0,22.679,0H15.8a1.034,1.034,0,0,0-1.031,1.031v.688A1.034,1.034,0,0,0,15.8,2.75H17.78v2.8A19.253,19.253,0,1,0,33.8,12.143ZM19.25,41.25a16.5,16.5,0,1,1,16.5-16.5A16.493,16.493,0,0,1,19.25,41.25Zm.344-11h-.687a1.034,1.034,0,0,1-1.031-1.031V14.781a1.034,1.034,0,0,1,1.031-1.031h.687a1.034,1.034,0,0,1,1.031,1.031V29.219A1.034,1.034,0,0,1,19.594,30.25Z"/></svg>