<svg xmlns="http://www.w3.org/2000/svg" width="20" height="14" viewBox="0 0 20 14"><defs><style>.a{fill:#002036;}</style></defs><path class="a" d="M10,41a2.5,2.5,0,1,0,2.5,2.5A2.5,2.5,0,0,0,10,41Zm0,4a1.5,1.5,0,1,1,1.5-1.5A1.5,1.5,0,0,1,10,45Zm9.881-9.064a14.372,14.372,0,0,0-19.763,0,.377.377,0,0,0-.008.541l.178.178a.376.376,0,0,0,.525.008,13.365,13.365,0,0,1,18.374,0,.377.377,0,0,0,.525-.008l.178-.178a.378.378,0,0,0-.008-.541ZM16.437,39.45a9.693,9.693,0,0,0-12.876,0,.374.374,0,0,0-.02.537l.173.181a.375.375,0,0,0,.521.021,8.694,8.694,0,0,1,11.531,0,.375.375,0,0,0,.521-.021l.173-.181A.375.375,0,0,0,16.437,39.45Z" transform="translate(0.002 -32.003)"/></svg>