<svg xmlns="http://www.w3.org/2000/svg" width="43.99" height="44"><path d="M30.529 15.48l-2.51 2.51 2.51 2.51a.712.712 0 010 1l-1 1a.712.712 0 01-1 0l-2.51-2.51-2.014 2 2.51 2.51a.712.712 0 010 1l-1 1a.712.712 0 01-1 0l-2.51-2.51-2 2 2.51 2.51a.712.712 0 010 1l-1 1a.712.712 0 01-1 0l-2.53-2.49-2.51 2.51a.712.712 0 01-1 0l-1-1a.712.712 0 010-1l2.506-2.51-2.519-2.5a.712.712 0 010-1l1-1a.712.712 0 011 0l2.515 2.5 2-2-2.51-2.51a.712.712 0 010-1l1-1a.712.712 0 011 0l2.51 2.51 2-2-2.51-2.51a.712.712 0 010-1l1-1a.712.712 0 011 0l2.51 2.51 2.51-2.51a.712.712 0 011 0l1 1a.686.686 0 01.018.994zm5.083 20.154C23.379 47.893 6.711 43.228 4.6 42.66a4.66 4.66 0 01-3.3-3.309C-.217 33.61-2.506 19.268 8.379 8.366 20.611-3.89 37.279.773 39.39 1.34a4.66 4.66 0 013.3 3.309c1.517 5.739 3.805 20.083-7.079 30.985zm3.051-31.553a37.985 37.985 0 00-7.655-1.171l10.103 10.1a36.833 36.833 0 00-1.153-7.638 1.836 1.836 0 00-1.295-1.291zM5.327 39.919a37.985 37.985 0 007.655 1.171L2.888 30.986a36.833 36.833 0 001.153 7.638 1.81 1.81 0 001.286 1.295zm35.725-22.957L27.016 2.937a25.324 25.324 0 00-16.632 7.425A25.758 25.758 0 002.941 27.03l14.024 14.024a25.324 25.324 0 0016.632-7.425 25.691 25.691 0 007.455-16.667z" fill="#fff"/></svg>