<svg xmlns="http://www.w3.org/2000/svg" width="20.002" height="20"><path d="M19.689 9.999H2.5V2.391a1.143 1.143 0 011.951-.808l.986.986a2.747 2.747 0 00.436 3.495l-.459.459a.313.313 0 000 .442l.442.442a.313.313 0 00.442 0l4.862-4.862a.313.313 0 000-.442l-.442-.442a.313.313 0 00-.442 0l-.46.459a2.747 2.747 0 00-3.495-.435L5.335.701a2.392 2.392 0 00-4.085 1.69v7.608H.313a.313.313 0 00-.313.312v.625a.313.313 0 00.313.313h.937v3.75a3.739 3.739 0 002.5 3.521v1.167a.313.313 0 00.313.313h.625A.313.313 0 005 19.687v-.938h10v.938a.313.313 0 00.313.313h.625a.313.313 0 00.313-.313V18.52a3.739 3.739 0 002.5-3.521v-3.75h.938a.313.313 0 00.311-.313v-.625a.313.313 0 00-.311-.312zm-10.754-7l-2.18 2.18a1.511 1.511 0 01-.5-1.122 1.563 1.563 0 011.558-1.559 1.511 1.511 0 011.122.5zm8.567 12a2.5 2.5 0 01-2.5 2.5H5a2.5 2.5 0 01-2.5-2.5v-3.75h15z" fill="#002036"/></svg>