<svg xmlns="http://www.w3.org/2000/svg" width="22.75" height="24"><path d="M20.312 3h-2.437V.562a.589.589 0 00-.61-.562h-.406a.589.589 0 00-.609.562V3H6.5V.562A.589.589 0 005.891 0h-.407a.589.589 0 00-.609.562V3H2.437A2.35 2.35 0 000 5.25v16.5A2.35 2.35 0 002.437 24h17.875a2.35 2.35 0 002.437-2.25V5.25A2.35 2.35 0 0020.312 3zM2.437 4.5h17.875a.785.785 0 01.812.75V7.5H1.625V5.25a.785.785 0 01.812-.75zm17.875 18H2.437a.785.785 0 01-.812-.75V9h19.5v12.75a.785.785 0 01-.813.75zM7.516 15H5.484a.589.589 0 01-.609-.562v-1.876A.589.589 0 015.484 12h2.032a.589.589 0 01.609.562v1.875a.589.589 0 01-.609.563zm4.875 0h-2.032a.589.589 0 01-.609-.562v-1.876a.589.589 0 01.609-.562h2.031a.589.589 0 01.609.562v1.875a.589.589 0 01-.608.563zm4.875 0h-2.032a.589.589 0 01-.609-.562v-1.876a.589.589 0 01.609-.562h2.031a.589.589 0 01.609.562v1.875a.589.589 0 01-.609.563zm-4.875 4.5h-2.032a.589.589 0 01-.609-.562v-1.876a.589.589 0 01.609-.562h2.031a.589.589 0 01.609.562v1.875a.589.589 0 01-.608.563zm-4.875 0H5.484a.589.589 0 01-.609-.562v-1.876a.589.589 0 01.609-.562h2.032a.589.589 0 01.609.562v1.875a.589.589 0 01-.609.563zm9.75 0h-2.032a.589.589 0 01-.609-.562v-1.876a.589.589 0 01.609-.562h2.031a.589.589 0 01.609.562v1.875a.589.589 0 01-.609.563z" fill="#fff"/></svg>