<svg xmlns="http://www.w3.org/2000/svg" width="17.5" height="20"><path d="M15.625 2.5H13.75V.313A.313.313 0 0013.438 0h-.625a.313.313 0 00-.313.313V2.5H5V.313A.313.313 0 004.688 0h-.625a.313.313 0 00-.313.313V2.5H1.875A1.875 1.875 0 000 4.375v13.75A1.875 1.875 0 001.875 20h13.75a1.875 1.875 0 001.875-1.875V4.375A1.875 1.875 0 0015.625 2.5zm.625 15.625a.627.627 0 01-.625.625H1.875a.627.627 0 01-.625-.625V7.5h15zm0-11.875h-15V4.375a.627.627 0 01.625-.625h13.75a.627.627 0 01.625.625zM4.375 15h3.75a.627.627 0 00.625-.625v-3.75A.627.627 0 008.125 10h-3.75a.627.627 0 00-.625.625v3.75a.627.627 0 00.625.625zM5 11.25h2.5v2.5H5z" fill="#002036"/></svg>