<svg xmlns="http://www.w3.org/2000/svg" width="50.958" height="54"><path d="M48.549 5.442L38.517 3.123a3.118 3.118 0 00-3.563 1.8l-4.628 10.8a3.121 3.121 0 00.886 3.633l5.364 4.393a34.833 34.833 0 01-15.884 15.88l-4.386-5.365a3.121 3.121 0 00-3.633-.886L1.881 38.006a3.106 3.106 0 00-1.8 3.553l2.308 10.022a3.108 3.108 0 003.036 2.418A45.523 45.523 0 0050.957 8.467a3.09 3.09 0 00-2.408-3.025zM5.484 50.815l-2.289-9.913 10.689-4.578 5.922 7.246C30.117 38.733 35.7 33.13 40.517 22.859l-7.245-5.922L37.85 6.249l9.913 2.289A42.324 42.324 0 015.484 50.815zm7.881-31.208a2.451 2.451 0 102.451 2.451 2.451 2.451 0 00-2.451-2.451zm.671-2.1h-1.4a1.05 1.05 0 01-1.05-1.05v-.033c0-6.157 6.779-5.569 6.779-9.4 0-1.752-1.555-3.52-5.028-3.52a5.785 5.785 0 00-5.183 2.512 1.048 1.048 0 01-1.422.208l-1.15-.8a1.049 1.049 0 01-.232-1.5A9.186 9.186 0 0113.337.008c4.58 0 8.529 2.6 8.529 7.021 0 5.9-6.779 5.589-6.779 9.4v.033a1.05 1.05 0 01-1.05 1.044z" fill="#5aceff"/></svg>