<svg xmlns="http://www.w3.org/2000/svg" width="22.857" height="20"><path d="M11.429 16.786a5.357 5.357 0 115.357-5.357 5.361 5.361 0 01-5.357 5.357zm0-9.286a3.929 3.929 0 103.929 3.929A3.934 3.934 0 0011.429 7.5zM10 11.429A1.433 1.433 0 0111.429 10a.715.715 0 000-1.429 2.86 2.86 0 00-2.857 2.857.715.715 0 101.429 0zm4.478-10a.362.362 0 01.335.232l.987 2.625h4.915a.716.716 0 01.714.714v12.857a.716.716 0 01-.714.714H2.143a.716.716 0 01-.714-.714V5a.716.716 0 01.714-.714h4.92l.9-2.393a.716.716 0 01.67-.464h5.848m0-1.429H8.629a2.14 2.14 0 00-2 1.388l-.554 1.469H2.143A2.143 2.143 0 000 5v12.857A2.143 2.143 0 002.143 20h18.571a2.143 2.143 0 002.143-2.143V5a2.143 2.143 0 00-2.143-2.143h-3.928l-.638-1.7A1.775 1.775 0 0014.478 0z" fill="#002036"/></svg>