<svg xmlns="http://www.w3.org/2000/svg" width="22.499" height="20"><path d="M10.554 6.25h1.387a.234.234 0 01.234.242l-.293 7.656a.236.236 0 01-.234.227h-.8a.233.233 0 01-.234-.227l-.293-7.656a.234.234 0 01.234-.242zm.7 8.906a1.094 1.094 0 101.089 1.094 1.092 1.092 0 00-1.094-1.094zm11 2.031L12.873.937a1.877 1.877 0 00-3.25 0L.253 17.188A1.877 1.877 0 001.873 20h18.751a1.875 1.875 0 001.621-2.812zm-1.63 1.563H1.873a.626.626 0 01-.543-.937l9.375-16.25a.625.625 0 011.082 0l9.375 16.25a.624.624 0 01-.539.938z" fill="#c92d4c"/></svg>