<svg xmlns="http://www.w3.org/2000/svg" width="60" height="42"><defs><style>.a{fill:#d5566b}</style></defs><path class="a" d="M59.25 3a.75.75 0 00.75-.75V.75a.75.75 0 00-.75-.75H.75A.75.75 0 000 .75v1.5A.75.75 0 00.75 3h.75v36H.75a.75.75 0 00-.75.75v1.5a.75.75 0 00.75.75h58.5a.75.75 0 00.75-.75v-1.5a.75.75 0 00-.75-.75h-.75V3zM21.844 33.621a1.5 1.5 0 01-1.5-1.5v-12a1.5 1.5 0 011.5-1.5H38.25a1.5 1.5 0 011.5 1.5v12a1.5 1.5 0 01-1.5 1.5zM30 8.5c2.485 0 3.75.14 3.75 2.625v4.5h-7.406v-4.5c0-2.49 1.171-2.625 3.656-2.625zm7.5-5.308v12.429h-.75v-4.5c0-3.617-1.988-5.206-5.25-5.551V3h6.024a.773.773 0 00-.024.188zm-9 2.383c-3.241.346-5.156 1.935-5.156 5.55v4.5H22.5V3h6zm-9 10.708a4.5 4.5 0 00-2.156 3.844v12a4.5 4.5 0 002.156 3.839V39h-6V3h6zm3 20.344h6V39h-6zm9 0h6V39h-6zm8.99-.6a4.494 4.494 0 002.26-3.9v-12a4.5 4.5 0 00-2.249-3.9V3.187A.773.773 0 0040.476 3H46.5v36h-6v-2.837a.991.991 0 00-.01-.141zM4.5 3h6v36h-6zm51 36h-6V3h6z"/><circle class="a" cx="3.829" cy="3.829" r="3.829" transform="translate(26.171 22.056)"/></svg>