<svg xmlns="http://www.w3.org/2000/svg" width="20" height="21.333"><path d="M14.338 19.6l.592-6.867a6.884 6.884 0 01-2.93-5.4C12 3.4 15.671 0 18.333 0A1.638 1.638 0 0120 1.6v18.129a1.638 1.638 0 01-1.667 1.6H16a1.634 1.634 0 01-1.662-1.729zm-1-12.263c0 2.125 1.342 3.563 2.992 4.771l-.658 7.608A.3.3 0 0016 20h2.333a.313.313 0 00.333-.271V1.6a.313.313 0 00-.333-.271c-1.858.004-5 2.746-5 6.004zm-3.3-5.925A1.808 1.808 0 008.108 0a2.142 2.142 0 00-1.387.467A2.127 2.127 0 005.333 0a2.127 2.127 0 00-1.387.467A2.142 2.142 0 002.558 0a1.806 1.806 0 00-1.92 1.408A40.02 40.02 0 000 6.246a4.836 4.836 0 002.958 4.613l-.475 8.783a1.6 1.6 0 001.6 1.692h2.5a1.6 1.6 0 001.6-1.692l-.475-8.783a4.842 4.842 0 002.958-4.613 40.019 40.019 0 00-.637-4.838zM6.346 10l.508 9.713a.272.272 0 01-.271.287h-2.5a.272.272 0 01-.271-.288L4.321 10a3.673 3.673 0 01-2.988-3.754 42.216 42.216 0 01.617-4.608c.067-.413 1.179-.4 1.229.008v5.1c.038.479 1.175.488 1.229.008l.308-5.121c.067-.4 1.162-.4 1.229 0l.308 5.121c.054.475 1.192.467 1.229-.008V1.65c.05-.413 1.162-.421 1.229-.008a42.216 42.216 0 01.618 4.608A3.664 3.664 0 016.346 10z" fill="#002036"/></svg>