<svg xmlns="http://www.w3.org/2000/svg" width="56.25" height="50"><path d="M51.562 0H4.687A4.689 4.689 0 000 4.688v28.125A4.689 4.689 0 004.687 37.5h18.75l-2.344 9.375h-7.031a1.563 1.563 0 100 3.125h28.125a1.562 1.562 0 100-3.125h-7.031L32.812 37.5h18.75a4.689 4.689 0 004.688-4.687V4.688A4.689 4.689 0 0051.562 0zM24.316 46.875l1.563-6.25h4.492l1.563 6.25zm28.809-14.062a1.567 1.567 0 01-1.563 1.562H4.687a1.567 1.567 0 01-1.562-1.562V4.688a1.567 1.567 0 011.562-1.563h46.875a1.567 1.567 0 011.563 1.563z" fill="#fff"/></svg>