<svg xmlns="http://www.w3.org/2000/svg" width="55" height="44"><path d="M41.25 28.188a2.062 2.062 0 102.063 2.062 2.062 2.062 0 00-2.063-2.062zm-22-11a2.063 2.063 0 102.063 2.063 2.062 2.062 0 00-2.063-2.063zm8.25 0a2.063 2.063 0 102.063 2.063 2.062 2.062 0 00-2.068-2.063zm-16.5 0a2.063 2.063 0 102.063 2.063 2.062 2.062 0 00-2.068-2.063zm8.25 8.25a2.063 2.063 0 102.062 2.062 2.062 2.062 0 00-2.062-2.062zm0-16.5A2.063 2.063 0 1021.312 11a2.062 2.062 0 00-2.062-2.062zM49.495 16.5H37.759a5.6 5.6 0 00-.915-1.25L23.249 1.657a5.656 5.656 0 00-8 0L1.656 15.25a5.657 5.657 0 000 8L15.25 36.843a5.656 5.656 0 008 0l4.25-4.25V38.5a5.5 5.5 0 005.495 5.5h16.5a5.5 5.5 0 005.5-5.5V22a5.5 5.5 0 00-5.5-5.5zM21.249 34.843a2.828 2.828 0 01-4 0L3.656 21.25a2.828 2.828 0 010-4L17.25 3.657a2.828 2.828 0 014 0L34.843 17.25a2.828 2.828 0 010 4zm31 3.657a2.754 2.754 0 01-2.75 2.75H32.995a2.754 2.754 0 01-2.75-2.75v-8.657l6.593-6.593a5.64 5.64 0 001.657-4h11A2.754 2.754 0 0152.25 22z" fill="#fff"/></svg>