<svg xmlns="http://www.w3.org/2000/svg" width="31.026" height="21"><path data-name="Union 3" d="M2.912 20.5A2.412 2.412 0 01.5 18.088V2.912A2.412 2.412 0 012.912.5h15.176A2.412 2.412 0 0120.5 2.912v2.476l4.125-4.1a2.7 2.7 0 013.819 0l1.292 1.292a2.7 2.7 0 010 3.819l-8.27 8.3a8.7 8.7 0 01-.966.801v2.585a2.412 2.412 0 01-2.412 2.415zM2.169 2.912v15.176a.744.744 0 00.743.744h15.176a.745.745 0 00.744-.744v-3.449l.018-.011a6.735 6.735 0 001.433-1.1l.128-.129.089-.09h0l6.035-6.067-2.754-2.749L20.5 7.757 18.85 9.4l-.018.018v-6.5a.744.744 0 00-.744-.743H2.912a.744.744 0 00-.743.737zM25.8 2.471l-1.1 1.105 2.752 2.752 1.1-1.1a1.034 1.034 0 000-1.461l-1.288-1.296a1.033 1.033 0 00-1.46 0zM13.845 17.182a2.242 2.242 0 01-1.971-1.243.584.584 0 00-1.054-.018l-.4.8a.835.835 0 01-1.538-.109l-.875-2.632-.554 1.663a2.25 2.25 0 01-2.136 1.539h-.646a.834.834 0 110-1.669h.647a.58.58 0 00.552-.4l.95-2.849a1.252 1.252 0 012.375 0l.724 2.169a2.341 2.341 0 013.441.739.578.578 0 00.488.327 8.233 8.233 0 011.625-4.953 9.375 9.375 0 01.85-.99l2.511-2.5v2.359L17.5 10.742a6.729 6.729 0 00-1.984 4.771h0a6.721 6.721 0 003.319-.875v1.842a8.45 8.45 0 01-3.319.7z" stroke="rgba(0,0,0,0)" stroke-miterlimit="10"/></svg>