<svg xmlns="http://www.w3.org/2000/svg" width="67.842" height="44"><defs><style>.a{fill:#fff}</style></defs><path class="a" d="M18.735 12.089a6.891 6.891 0 00-1.148-10.092 9.586 9.586 0 00-11.6 0 6.891 6.891 0 00-1.15 10.092A6.475 6.475 0 000 18.074v9.014A4.719 4.719 0 003.929 31.5v7.95c0 2.512 2.332 4.547 5.205 4.55h5.3c2.874 0 5.2-2.038 5.205-4.55V31.5a4.719 4.719 0 003.929-4.412v-9.014a6.475 6.475 0 00-4.833-5.985zm-6.949-9.3c3.038 0 5.5 2.152 5.5 4.807s-2.462 4.807-5.5 4.807-5.5-2.152-5.5-4.807 2.462-4.807 5.5-4.807zm8.643 24.295a1.946 1.946 0 01-2.063 1.8H16.5V39.45a1.946 1.946 0 01-2.063 1.8h-5.3a1.946 1.946 0 01-2.063-1.8V28.891H5.205a1.946 1.946 0 01-2.063-1.8v-9.017a3.892 3.892 0 014.125-3.606h.919a9.767 9.767 0 007.2 0h.914a3.892 3.892 0 014.125 3.606zm47.281 2.189l-3.92-14.1a4.116 4.116 0 00-1.65-2.284 4.635 4.635 0 00-.447-.276 6.892 6.892 0 00-.418-10.49 9.561 9.561 0 00-12.008 0 6.892 6.892 0 00-.418 10.49 4.168 4.168 0 00-2.1 2.557l-3.92 14.106c-.709 2.547 1.51 5.074 4.587 5.074h1.272v5.065c0 2.511 2.332 4.547 5.205 4.55h2.75c2.873 0 5.2-2.038 5.205-4.55v-5.067h1.277c3.076 0 5.294-2.528 4.585-5.075zM55.271 2.756c3.038 0 5.5 2.152 5.5 4.807s-2.462 4.807-5.5 4.807-5.5-2.152-5.5-4.807 2.463-4.807 5.5-4.807zm7.857 28.845h-4.42v7.812a1.946 1.946 0 01-2.063 1.8h-2.744a1.946 1.946 0 01-2.063-1.8v-7.812h-4.42a1.665 1.665 0 01-1.228-.517 1.245 1.245 0 01-.3-1.162l3.92-14.121a1.541 1.541 0 011.532-1.069h1.213a9.829 9.829 0 005.431 0h1.215a1.541 1.541 0 011.532 1.069l3.929 14.118a1.245 1.245 0 01-.3 1.161 1.665 1.665 0 01-1.234.521z"/><path class="a" d="M46.45 16.272a4.544 4.544 0 00-5.9-.453 6.613 6.613 0 00-13.027 0 4.559 4.559 0 00-5.9 6.916l4.783 4.781v12.385a4.066 4.066 0 004.06 4.061h1.015a4.027 4.027 0 002.554-.9 4.027 4.027 0 002.554.9h1.02a4.066 4.066 0 004.06-4.061V27.516l4.783-4.781a4.576 4.576 0 00-.002-6.463zm-13.924 16v7.63a1.04 1.04 0 01-1.043 1.035h-1.017a1.039 1.039 0 01-1.038-1.039V26.264l-5.666-5.666a1.549 1.549 0 112.19-2.19l5.156 5.156h5.856l5.156-5.156a1.549 1.549 0 112.19 2.19l-5.666 5.666v13.637a1.039 1.039 0 01-1.038 1.039h-1.017a1.04 1.04 0 01-1.039-1.039v-7.626zm1.511-11.733a3.589 3.589 0 113.589-3.589 3.589 3.589 0 01-3.589 3.592z"/></svg>