<svg xmlns="http://www.w3.org/2000/svg" width="18" height="24"><path d="M6.375 15h-.75a.376.376 0 00-.375.375v4.5a.376.376 0 00.375.375h.75a.376.376 0 00.375-.375v-4.5A.376.376 0 006.375 15zm3-4.5h-.75a.376.376 0 00-.375.375v9a.376.376 0 00.375.375h.75a.376.376 0 00.375-.375v-9a.376.376 0 00-.375-.375zm1.875 3.375v6a.376.376 0 00.375.375h.75a.376.376 0 00.375-.375v-6a.376.376 0 00-.375-.375h-.75a.376.376 0 00-.375.375zm6.089-9.282L13.407.661A2.25 2.25 0 0011.819 0H2.25A2.257 2.257 0 000 2.254v19.5A2.25 2.25 0 002.25 24h13.5A2.25 2.25 0 0018 21.75V6.186a2.261 2.261 0 00-.661-1.593zM12 1.528a.737.737 0 01.347.2l3.933 3.928a.737.737 0 01.2.347H12zm4.5 20.222a.752.752 0 01-.75.75H2.25a.752.752 0 01-.75-.75V2.254a.756.756 0 01.75-.754h8.25v4.878A1.12 1.12 0 0011.626 7.5H16.5z" fill="#5aceff"/></svg>