<svg xmlns="http://www.w3.org/2000/svg" width="43.75" height="50"><path d="M43.75 27.5c0-5.2-5.076-15.931-12.152-22.5a58.338 58.338 0 00-5.49 5.856A75.769 75.769 0 0016.406 0C6.811 8.9 0 20.5 0 27.5 0 39.927 9.794 50 21.875 50c.052 0 .1-.008.154-.008.031 0 .059.008.09.008.184 0 .362-.034.545-.041C34.377 49.528 43.75 39.652 43.75 27.5zm-40.625 0c0-4.9 4.64-14.4 13.286-23.153a71.263 71.263 0 017.167 8.347l2.384 3.283 2.565-3.144q1.443-1.767 3.026-3.413c5.529 6.188 9.072 14.58 9.072 18.08a19.647 19.647 0 01-5.5 13.692 13.693 13.693 0 00-.784-10.939q-.5-.953-1.058-1.874l-2.21-3.652-2.814 3.21-2.525 2.881c-2.435-3.1-5.792-7.373-6.221-7.865l-2.404-2.773L14.758 23c-4.2 5.028-6.945 8.662-6.945 13.174a14.386 14.386 0 00.954 5.155A19.625 19.625 0 013.125 27.5zm18.9 19.367c-6.121-.042-11.088-4.106-11.088-10.694 0-3.3 2.077-6.206 6.22-11.173.592.682 8.445 10.711 8.445 10.711L30.612 30q.507.839.964 1.707a10.193 10.193 0 01-2.857 13.109 11.472 11.472 0 01-6.091 2.024c-.201.004-.399.025-.603.027z" fill="#36d8b1"/></svg>