<svg xmlns="http://www.w3.org/2000/svg" width="24.001" height="24"><path d="M23.403 8.294A11.992 11.992 0 1012.003 24a12 12 0 0011.4-15.706zm-2.081 8.4l-4.563.561-.861-1.2 1.631-5.037 1.4-.435 3.368 3.145a10.644 10.644 0 01-.973 2.971zM1.723 13.718l3.358-3.14 1.4.435 1.64 5.018-.877 1.219-4.558-.561a9.77 9.77 0 01-.963-2.971zm9.508-8.744v1.592L7.075 9.581l-1.524-.474-.871-4.544a10.444 10.444 0 012.516-1.829zm7.229 4.132l-1.524.474-4.156-3.015V4.974l4.045-2.245a10.427 10.427 0 012.516 1.834l-.881 4.544zM8.038 10.8l3.965-2.879 3.975 2.879-1.5 4.645H9.557zm14.4.944l-2.473-2.308.644-3.3a10.263 10.263 0 011.829 5.613zm-7.481-9.75l-2.954 1.64L9.054 2a9.466 9.466 0 015.908-.006zM3.403 6.1l.639 3.334-2.473 2.3a10.425 10.425 0 011.142-4.481A10.222 10.222 0 013.403 6.1zm.363 12.29l3.324.406 1.413 3.036a10.387 10.387 0 01-4.737-3.44zm6.673 3.934l-1.94-4.161.842-1.171h5.332l.837 1.171-1.94 4.161a9.848 9.848 0 01-3.132.002zm5.071-.494l1.411-3.03 3.339-.411a10.34 10.34 0 01-4.752 3.443z" fill="#fff"/></svg>