<svg xmlns="http://www.w3.org/2000/svg" width="27" height="24"><path d="M24.75 6h-3.342a3.875 3.875 0 00.717-2.25A3.632 3.632 0 0018.633 0C16.65 0 15.5 1.191 13.5 4.491 11.5 1.191 10.35 0 8.367 0a3.632 3.632 0 00-3.492 3.75A3.875 3.875 0 005.592 6H2.25A2.25 2.25 0 000 8.25v13.5A2.25 2.25 0 002.25 24h22.5A2.25 2.25 0 0027 21.75V8.25A2.25 2.25 0 0024.75 6zm-10.3-.169c2.32-3.9 3.094-4.331 4.186-4.331a2.135 2.135 0 011.992 2.25A2.135 2.135 0 0118.633 6h-4.289zM8.367 1.5c1.1 0 1.866.427 4.186 4.331l.1.169h-4.29A2.135 2.135 0 016.37 3.75 2.142 2.142 0 018.367 1.5zM25.5 21.75a.751.751 0 01-.75.75H2.25a.751.751 0 01-.75-.75v-1.5h24zm0-3h-24v-3h24zm0-4.5h-24v-6a.75.75 0 01.75-.75h9.44l-3.7 3.7a.375.375 0 000 .53l.53.53a.375.375 0 00.53 0l4.45-4.45 4.455 4.455a.375.375 0 00.53 0l.53-.53a.375.375 0 000-.53l-3.7-3.7h9.44a.75.75 0 01.75.75z" fill="#fff"/></svg>