<svg xmlns="http://www.w3.org/2000/svg" width="27.001" height="24"><path d="M26.883 10.308L24 7.988V3.376a.376.376 0 00-.375-.375h-.75a.376.376 0 00-.375.375v3.4l-7.94-6.4a1.68 1.68 0 00-2.119 0L.118 10.308a.315.315 0 00-.047.445l.666.82a.32.32 0 00.45.047l1.814-1.462V23.25a.752.752 0 00.75.75h19.5a.752.752 0 00.75-.75V10.163l1.819 1.467a.32.32 0 00.45-.047l.666-.82a.335.335 0 00-.052-.455zM22.5 22.5h-18V8.949l8.8-7.1a.311.311 0 01.394 0l8.807 7.1zM12.98 9.446a3.561 3.561 0 00-4.917-.361 3.884 3.884 0 00-.262 5.564l5.1 5.348a.817.817 0 001.2 0l5.1-5.348a3.88 3.88 0 00-.262-5.564 3.6 3.6 0 00-4.912.361l-.525.548zm2.1 1.045a2.154 2.154 0 012.9-.267 2.366 2.366 0 01.159 3.38l-4.64 4.865-4.64-4.865a2.37 2.37 0 01.159-3.38 2.127 2.127 0 012.9.267l1.58 1.655z" fill="#fff"/></svg>