<svg xmlns="http://www.w3.org/2000/svg" width="22.5" height="20"><path d="M20 0H2.5A2.5 2.5 0 000 2.5v15A2.5 2.5 0 002.5 20H20a2.5 2.5 0 002.5-2.5v-15A2.5 2.5 0 0020 0zm.833 17.5a.834.834 0 01-.833.833H2.5a.834.834 0 01-.833-.833v-15a.834.834 0 01.833-.833H20a.834.834 0 01.833.833zm-15-8.75a2.917 2.917 0 10-2.917-2.917A2.917 2.917 0 005.833 8.75zm0-4.167a1.25 1.25 0 11-1.25 1.25 1.251 1.251 0 011.25-1.25zm10.783 1.2l-4.949 4.949-1.616-1.616a1.25 1.25 0 00-1.768 0L3.7 13.7a1.25 1.25 0 00-.366.884v1.458a.625.625 0 00.625.625h14.583a.625.625 0 00.625-.625v-9.59a2.015 2.015 0 00-.558-.931c-.489-.489-1.509-.226-1.993.262zM17.5 15H5v-.244l4.167-4.167 2.5 2.5L17.5 7.256V15z" fill="#b2bbc2"/></svg>