<svg xmlns="http://www.w3.org/2000/svg" width="30.007" height="30"><path d="M15.007 7.308A7.692 7.692 0 1022.699 15a7.679 7.679 0 00-7.692-7.692zm0 12.692a5 5 0 115-5 5.01 5.01 0 01-5 5zm9.8-13.007a1.794 1.794 0 11-1.794-1.794 1.79 1.79 0 011.794 1.795zm5.094 1.821a8.878 8.878 0 00-2.426-6.285A8.937 8.937 0 0021.189.106c-2.477-.141-9.9-.141-12.378 0a8.924 8.924 0 00-6.286 2.417 8.907 8.907 0 00-2.42 6.285c-.141 2.477-.141 9.9 0 12.378a8.878 8.878 0 002.424 6.289 8.948 8.948 0 006.286 2.42c2.477.141 9.9.141 12.378 0a8.878 8.878 0 006.282-2.42 8.937 8.937 0 002.423-6.286c.144-2.48.144-9.898.003-12.374zm-3.2 15.028a5.063 5.063 0 01-2.852 2.852c-1.975.783-6.661.6-8.843.6s-6.875.174-8.843-.6a5.063 5.063 0 01-2.852-2.852c-.783-1.975-.6-6.661-.6-8.843s-.174-6.875.6-8.843a5.063 5.063 0 012.853-2.851c1.975-.783 6.661-.6 8.843-.6s6.875-.174 8.843.6a5.063 5.063 0 012.852 2.852c.783 1.975.6 6.661.6 8.843s.183 6.875-.601 8.843z" fill="#29abe2"/></svg>