<svg xmlns="http://www.w3.org/2000/svg" width="44.003" height="44"><path d="M3.114 2.879a10.517 10.517 0 0114.648.183l2.472 2.465a10.4 10.4 0 013.065 7.312l19.666 22.124a4.115 4.115 0 01-.172 5.647l-2.188 2.181a4.148 4.148 0 01-5.666.172L22.013 31.482v11.83a.687.687 0 01-.691.689h-1.383a.687.687 0 01-.687-.687V29.046l-6.518-5.679a10.469 10.469 0 01-7.336-3.054l-2.157-2.148c-4.185-4.17-4.412-11.222-.127-15.286zm33.647 38.022a1.382 1.382 0 001.891-.058l2.186-2.182a1.375 1.375 0 00.062-1.879L22.046 15.575l-6.566 6.542zM7.349 18.368a7.7 7.7 0 005.407 2.249h.327l7.458-7.433v-.325a7.642 7.642 0 00-2.258-5.388l-.95-.945L6.398 17.42zm-2.86-2.934L15.34 4.621A7.678 7.678 0 004.489 15.434z" fill="#fff"/></svg>