<svg xmlns="http://www.w3.org/2000/svg" width="30" height="18"><path d="M28.5 0h-27A1.5 1.5 0 000 1.5v15A1.5 1.5 0 001.5 18h27a1.5 1.5 0 001.5-1.5v-15A1.5 1.5 0 0028.5 0zm-27 1.5h3a3 3 0 01-3 3zm0 15v-3a3 3 0 013 3zm27 0h-3a3 3 0 013-3zm0-4.5a4.507 4.507 0 00-4.5 4.5H6A4.507 4.507 0 001.5 12V6A4.507 4.507 0 006 1.5h18A4.507 4.507 0 0028.5 6zm0-7.5a3 3 0 01-3-3h3zM15 3c-2.9 0-5.25 2.686-5.25 6s2.35 6 5.25 6 5.25-2.686 5.25-6S17.9 3 15 3zm0 10.5c-2.067 0-3.75-2.02-3.75-4.5S12.933 4.5 15 4.5s3.75 2.02 3.75 4.5-1.683 4.5-3.75 4.5zm1.5-3h-.75V6.38a.376.376 0 00-.375-.38h-.642a1.132 1.132 0 00-.623.188l-.717.478a.376.376 0 00-.1.52l.417.623a.376.376 0 00.52.1l.023-.014v2.6H13.5a.376.376 0 00-.375.375v.75a.376.376 0 00.375.38h3a.376.376 0 00.375-.375v-.75a.369.369 0 00-.375-.375z" fill="#fff"/></svg>