<svg xmlns="http://www.w3.org/2000/svg" width="32.5" height="20.75"><path d="M16.25 5.187a5.2 5.2 0 000 10.375 5.2 5.2 0 000-10.375zm0 8.893a3.737 3.737 0 010-7.411 3.737 3.737 0 010 7.411zM31.543 1.04A16.314 16.314 0 0025.632 0C19.377 0 13.123 2.887 6.868 2.887a23.627 23.627 0 01-5.23-.71A1.553 1.553 0 000 3.65v14.695a1.472 1.472 0 00.957 1.364 16.3 16.3 0 005.911 1.041c6.255 0 12.509-2.888 18.764-2.888a23.619 23.619 0 015.23.711A1.553 1.553 0 0032.5 17.1V2.405a1.472 1.472 0 00-.957-1.365zM1.673 3.671a17.676 17.676 0 003.182.6 3.131 3.131 0 01-3.194 2.8zm-.048 14.674l.007-1.97a3.139 3.139 0 013.218 2.752 13.455 13.455 0 01-3.225-.782zm29.2-1.266a17.654 17.654 0 00-3.172-.6 3.139 3.139 0 013.183-2.71l-.011 3.307zm.016-4.8a4.708 4.708 0 00-4.8 4.1 41.476 41.476 0 00-10.187 1.476 37.055 37.055 0 01-9.364 1.383 4.692 4.692 0 00-4.852-4.36l.021-6.33A4.7 4.7 0 006.47 4.364a41.517 41.517 0 0010.176-1.476A37.1 37.1 0 0126 1.5a4.688 4.688 0 004.862 4.45l-.021 6.33zm.026-7.818a3.132 3.132 0 01-3.229-2.843 13.454 13.454 0 013.235.783z" fill="#fff"/></svg>