<svg xmlns="http://www.w3.org/2000/svg" width="49.875" height="57"><path d="M46.312 0H7.125A7.124 7.124 0 000 7.125v42.75A7.124 7.124 0 007.125 57h39.187a3.563 3.563 0 003.563-3.563V3.563A3.563 3.563 0 0046.312 0zm0 53.437H7.125a3.567 3.567 0 01-3.562-3.562V7.125a3.567 3.567 0 013.562-3.562h39.187zm-33.843-7.125h24.937a1.781 1.781 0 100-3.562H12.469a1.781 1.781 0 100 3.563zm12.468-10.687a14.25 14.25 0 10-14.25-14.25 14.25 14.25 0 0014.25 14.25zm10.508-16.031h-4.352a25.121 25.121 0 00-1.582-7.839 10.67 10.67 0 015.934 7.839zm-4.352 3.562h4.352a10.673 10.673 0 01-5.934 7.839 25.089 25.089 0 001.582-7.839zm-6.156-12.323c.856.829 2.312 3.832 2.608 8.76h-5.217c.297-4.927 1.753-7.93 2.609-8.76zm2.608 12.323c-.3 4.927-1.752 7.931-2.608 8.76-.856-.829-2.312-3.832-2.608-8.76zm-7.182-11.4a25.089 25.089 0 00-1.582 7.839H14.43a10.67 10.67 0 015.934-7.84zm-1.582 11.4a25.121 25.121 0 001.582 7.839 10.67 10.67 0 01-5.934-7.839z" fill="#919ea8"/></svg>