<svg xmlns="http://www.w3.org/2000/svg" width="32.5" height="20.75"><path d="M24.375 10.375a4.677 4.677 0 004.875-4.446 4.677 4.677 0 00-4.875-4.446A4.677 4.677 0 0019.5 5.929a4.677 4.677 0 004.875 4.446zm0-7.411a2.977 2.977 0 110 5.929 2.977 2.977 0 110-5.929zM9.75 10.375a5.452 5.452 0 005.687-5.187A5.452 5.452 0 009.75 0a5.452 5.452 0 00-5.687 5.187 5.452 5.452 0 005.687 5.188zm0-8.893a3.9 3.9 0 014.062 3.705A3.9 3.9 0 019.75 8.893a3.9 3.9 0 01-4.062-3.705A3.9 3.9 0 019.75 1.482zm4.067 9.818c-1.7 0-2.118.556-4.068.556S7.378 11.3 5.682 11.3A5.783 5.783 0 001 13.473a4.985 4.985 0 00-1 2.978v2.075a2.338 2.338 0 002.437 2.224h14.625a2.338 2.338 0 002.438-2.223v-2.075a4.985 4.985 0 00-1-2.978 5.783 5.783 0 00-4.683-2.174zm4.057 7.225a.782.782 0 01-.812.741H2.437a.782.782 0 01-.812-.741v-2.073a3.613 3.613 0 01.716-2.152 4.109 4.109 0 013.336-1.519c1.391 0 1.889.556 4.073.556s2.681-.556 4.068-.556a4.109 4.109 0 013.336 1.519 3.613 3.613 0 01.716 2.149v2.075zm13.8-5.322a4.823 4.823 0 00-3.905-1.811c-1.412 0-1.767.463-3.392.463s-1.98-.463-3.392-.463a5.363 5.363 0 00-1.935.375A4.507 4.507 0 0120.074 13a3.631 3.631 0 01.909-.12c1.107 0 1.523.463 3.392.463s2.285-.463 3.392-.463a3.147 3.147 0 012.559 1.158 2.768 2.768 0 01.554 1.653v1.723a.391.391 0 01-.406.371h-9.349a6.07 6.07 0 01-.081 1.482h9.425a1.948 1.948 0 002.031-1.852v-1.728a4.156 4.156 0 00-.828-2.487z" fill="#fff"/></svg>