<svg xmlns="http://www.w3.org/2000/svg" width="44" height="44"><path d="M30.049 14.923l-.972-.972a.688.688 0 00-.972 0L13.951 28.1a.688.688 0 000 .972l.972.972a.688.688 0 00.972 0l14.153-14.149a.687.687 0 000-.972zM20.625 16.5a4.125 4.125 0 10-4.125 4.125 4.129 4.129 0 004.125-4.125zm-5.5 0a1.375 1.375 0 111.375 1.375 1.377 1.377 0 01-1.375-1.375zM27.5 23.375a4.125 4.125 0 104.125 4.125 4.129 4.129 0 00-4.125-4.125zm0 5.5a1.375 1.375 0 111.375-1.375 1.377 1.377 0 01-1.375 1.375zM44 22a8.507 8.507 0 00-4.263-7.348 8.465 8.465 0 00-10.39-10.39 8.464 8.464 0 00-14.7 0 8.465 8.465 0 00-10.39 10.39 8.464 8.464 0 000 14.7 8.465 8.465 0 0010.39 10.39 8.464 8.464 0 0014.7 0 8.465 8.465 0 0010.39-10.39A8.507 8.507 0 0044 22zm-7.829 5.87c.455 1.014 2.535 4.649-.559 7.743-2.484 2.484-4.941 1.83-7.743.559-.4 1.04-1.487 5.079-5.87 5.079-4.477 0-5.56-4.254-5.87-5.079-2.8 1.272-5.268 1.908-7.743-.559-3.163-3.154-.937-6.918-.559-7.743-1.04-.4-5.079-1.487-5.079-5.87 0-4.477 4.254-5.56 5.079-5.87-.455-1.014-2.535-4.649.559-7.743 3.162-3.171 6.944-.92 7.743-.559.4-1.04 1.487-5.079 5.87-5.079 4.477 0 5.56 4.254 5.87 5.079 1.014-.455 4.649-2.535 7.743.559 3.162 3.154.937 6.918.559 7.743 1.04.4 5.079 1.487 5.079 5.87 0 4.477-4.25 5.56-5.079 5.87z" fill="#fff"/></svg>