<svg xmlns="http://www.w3.org/2000/svg" width="32.5" height="24"><path d="M.406 22.504h31.687a.391.391 0 01.406.375v.75a.391.391 0 01-.406.375H.406a.391.391 0 01-.406-.38v-.75a.391.391 0 01.406-.37zm2.618-8.318a8.676 8.676 0 013.887-2.052l4.923-1.251 4.9-8.684c.111-.2.211-.4.314-.6a1.261 1.261 0 01.815-.638l3.628-.957a1.318 1.318 0 01.95.4 1.221 1.221 0 01.259 1.143l-2.15 7.118 4.433-1.126 1.365-3.178a1.257 1.257 0 01.851-.715 13.344 13.344 0 012.407-.569 1.246 1.246 0 011.27 1.185l-.016 5.026a1.916 1.916 0 01-.692 1.416l-4.738 3.9a3.786 3.786 0 01-1.5.764L8.9 19.185a9.9 9.9 0 01-2.431.315 8.015 8.015 0 01-2.017-.25c-1.568-.407-2.5-1.085-2.758-2.016s.187-1.957 1.331-3.053zm.247 2.675c.1.362.694.708 1.625.95a7.368 7.368 0 003.576-.068L23.5 13.92a2.113 2.113 0 00.834-.427l4.739-3.9a.462.462 0 00.161-.339l.005-4.574-1.44.366L26.2 8.785l-8.016 2.036 2.768-9.124-2.478.655-5.523 9.8-5.609 1.424a7.029 7.029 0 00-3.148 1.646c-.693.665-1.03 1.26-.923 1.635z" fill="#fff"/></svg>