<svg xmlns="http://www.w3.org/2000/svg" width="30" height="21"><path d="M26.226 14.4a1.907 1.907 0 01-1.385.6l-5.956-.008a3.462 3.462 0 01-1.521-.357L4.094 8.058a8.1 8.1 0 01-3.2-2.727C.046 4.053-.16 2.974.272 2.125.815 1.053 2.241.683 3.68.683a8.294 8.294 0 013.692.921l4.346 2.156L21.499.172A1.2 1.2 0 0122.125 0a1.219 1.219 0 01.537.126l3 1.486a1.175 1.175 0 01.647.906 1.125 1.125 0 01-.537 1.092l-6.4 3.942 3.935 1.95 3.13-1.541a1.212 1.212 0 011.071 0l1.831.908a1.176 1.176 0 01.371 1.828zm.746-5.035l-3.667 1.805-7.028-3.483 8.167-5.008-2.31-1.145-10.5 3.849L6.707 2.95a6.817 6.817 0 00-3.028-.765c-.764 0-1.843.169-2.073.622-.16.315.039.95.533 1.7a6.607 6.607 0 002.618 2.209l13.271 6.575a1.952 1.952 0 00.859.2l5.953.008a.411.411 0 00.295-.125l3.155-3.353zM.375 19.5h29.2a.375.375 0 01.375.375v.75a.375.375 0 01-.375.375H.375a.375.375 0 01-.376-.375v-.75a.375.375 0 01.376-.375z" fill="#fff"/></svg>