<svg xmlns="http://www.w3.org/2000/svg" width="24.568" height="22.013"><path d="M20.126 8.077l-4.725.165L10.788.788a.663.663 0 00-.586-.314L6.547.603a.662.662 0 00-.606.865L8.217 8.49l-2.647.093L3.7 6.266a.662.662 0 00-.539-.246l-2.315.081a.662.662 0 00-.613.845l1.456 4.425-1.143 4.516a.662.662 0 00.67.8l2.316-.081a.662.662 0 00.52-.284l1.702-2.443 2.648-.092-1.78 7.163a.662.662 0 00.666.821l3.654-.128a.663.663 0 00.563-.354l4.08-7.758 4.727-.166c1.461-.051 3.928-1.324 3.877-2.785s-2.601-2.555-4.064-2.503zm.14 3.97l-5.495.192-4.257 8.098-2.398.084 1.99-8.02-5.057.178-1.893 2.717-1.099.038 1.015-4.007-1.297-3.933 1.1-.038 2.08 2.576 5.063-.177-2.546-7.86 2.398-.084 4.814 7.782L20.18 9.4c1.085-.038 2.62.808 2.692 1.227-.048.429-1.52 1.38-2.606 1.419z" fill="#002036"/></svg>