<svg xmlns="http://www.w3.org/2000/svg" width="276.01" height="53.795"><defs><style>.a{fill:#fff}</style></defs><path class="a" d="M273.724 41.577a2.229 2.229 0 001.61-.668 2.3 2.3 0 00.676-1.61 2.269 2.269 0 00-.676-1.61 2.229 2.229 0 00-1.61-.668 2.286 2.286 0 100 4.563m-1.907-2.286a1.9 1.9 0 111.907 1.9 1.867 1.867 0 01-1.344-.555 1.892 1.892 0 01-.563-1.344"/><path class="a" d="M274.85 40.354l-.072-.113v-.515a.571.571 0 00-.089-.346l-.153-.121.193-.185a.709.709 0 00.1-.386.628.628 0 00-.37-.628 1.207 1.207 0 00-.483-.089h-1.186v2.551h.443v-1.045h.692l.274.04a.29.29 0 01.145.266v.609l.04.1h.491v-.153zm-.507-1.61a.346.346 0 01-.113.29.587.587 0 01-.338.08h-.7v-.722h.749l.241.048a.306.306 0 01.161.306M87.381 12.531H75.028l-.089.08v28.878l.089.089h5l.089-.089v-25.8h5.722c2.085 0 3.219 2.093 3.219 5.916s-1.143 5.916-3.219 5.916h-3.445l-.089.089v2.978l.089.089h4.95a6.326 6.326 0 004.668-2.2 10.117 10.117 0 002.237-6.865c0-5.537-2.712-9.111-6.905-9.111m15.112.03h-5l-.089.08v28.878l.089.089h5l.1-.089V12.611zm21.851 7.027l-.1-.1h-8.926c-7.992 0-9.014 5.883-9.014 11.034v4.467c0 3.831 2.414 6.616 5.634 6.616h4.83l.1-.089v-2.991l-.1-.089h-3.469c-.8 0-1.883-.354-1.883-3.091v-4.828c0-3.219.306-5.239.958-6.4a2.922 2.922 0 012.873-1.465h3.9l.04.048v18.819l.08.089h5.006l.089-.089V19.558zm36.008 5.062l-2.463-.193c-1.843-.153-3.219-1.175-3.219-4.217 0-3.541 1.61-4.5 3.71-4.5h6.817l.089-.089v-3.01l-.089-.08h-7.525c-4.66 0-7.976 2.736-7.976 8.185v.209c0 4.322 2.648 7.421 6.592 7.718l2.463.185c1.859.153 3.018 1.811 3.018 4.354v.716c0 1.61-.386 4.5-3.783 4.5h-7.091l-.089.08v2.994l.089.089h8.789c2.72 0 7.243-1.1 7.243-8.483a9.786 9.786 0 00-1.843-6.294 6.366 6.366 0 00-4.749-2.181m41.031-5.045l-.089-.1h-8.885c-7.992 0-9.014 5.883-9.014 11.034v4.467c0 3.831 2.414 6.616 5.674 6.616h4.826l.089-.089v-2.991l-.089-.089h-3.477c-.8 0-1.875-.354-1.875-3.091v-4.828c0-3.219.3-5.239.958-6.4a2.913 2.913 0 012.865-1.465h3.815v18.867l.089.089h4.99l.1-.089zm-20.12-.097h-5.417v-3.662l-.089-.089h-5.006l-.08.089v19.163c0 3.839 2.414 6.616 5.634 6.616h3.59l.089-.089V38.49l-.089-.089h-2.205c-.563 0-1.875 0-1.875-2.865V22.664h5.417l.089-.089v-3.018zm34.945 0h-5.417v-3.662l-.089-.089h-5l-.1.089v19.163c0 3.839 2.415 6.616 5.682 6.616h3.582l.089-.089V38.49l-.089-.089h-2.208c-.547 0-1.867 0-1.867-2.865V22.664h5.425l.08-.089v-3.018zm8.274 0h-5.006l-.089.1v21.928l.089.089h5.006l.089-.089V19.558zm0-6.93h-5.006l-.089.08v4.193l.089.089h5.006l.089-.089v-4.193zm34.607 6.93h-8.934l-.089.1v21.928l.1.089h5.022l.089-.089V22.664h3.823a2.994 2.994 0 012.865 1.352c.66 1.078.974 2.962.974 5.94v11.565l.081.089h5.007l.089-.089V30.495c0-5.151-1.022-11.034-9.006-11.034m-21.783 0c-8.354 0-9.425 5.916-9.425 11.066s1.07 11.066 9.417 11.066 9.433-5.916 9.433-11.066-1.062-11.066-9.425-11.066m3.179 17.5a4.185 4.185 0 01-6.358 0c-.716-1.175-1.054-3.219-1.054-6.439 0-3.807.475-5.972 1.521-7a4.668 4.668 0 015.425 0c1.046 1.03 1.521 3.219 1.513 7.026 0 3.219-.322 5.264-1.046 6.439m-113.33-17.526l-.056.08 7.412 21.747v.177l-4.169 10.769.048.089h4.354l.121-.089 13.039-32.693-.048-.08h-4.757l-.121.08-5.521 14.294h-.072L132.5 19.541l-.121-.08zM25.015 0v48.161l10.9 3.461V11.268c0-1.891.845-3.163 2.205-2.72 1.779.491 2.125 2.237 2.125 4.129v16.1c6.8 3.284 12.137 0 12.137-8.66 0-8.853-3.123-12.829-12.354-15.992A131.129 131.129 0 0025.015 0"/><path class="a" d="M37.981 44.575l17.553-6.245c2-.708 2.3-1.722.684-2.245a11.879 11.879 0 00-6.527.33l-11.71 4.124v-6.551l.676-.233a40.724 40.724 0 018.113-1.714 34.608 34.608 0 0115.123 1.8c5.135 1.61 5.714 4.024 4.41 5.634s-4.512 2.827-4.512 2.827l-23.81 8.587zM5.023 43.92c-5.28-1.489-6.157-4.579-3.751-6.366a25.755 25.755 0 015.972-2.889l15.622-5.554v6.3l-11.265 4.03c-2 .716-2.294 1.722-.684 2.245a11.912 11.912 0 006.535-.33l5.449-1.915v5.63l-1.078.185a35.413 35.413 0 01-16.8-1.336m58.737 9.875a3.219 3.219 0 002.237-5.505 3.155 3.155 0 00-2.27-.942 3.219 3.219 0 00-2.27 5.473 3.155 3.155 0 002.27.942m-2.672-3.219a2.672 2.672 0 11.781 1.883 2.64 2.64 0 01-.8-1.883"/><path class="a" d="M65.337 52.083l-.1-.161v-.739a.8.8 0 00-.121-.467l-.217-.177.274-.266a1.03 1.03 0 00.137-.539.885.885 0 00-.531-.885 1.61 1.61 0 00-.676-.121h-1.72v3.582h.628v-1.469h.982l.378.056.2.378v.99h.692v-.209zm-.708-2.3l-.156.4-.475.113h-.99v-1.008h1.054l.346.064a.427.427 0 01.217.427"/></svg>