<svg xmlns="http://www.w3.org/2000/svg" width="38.5" height="44"><path d="M.687 13.75H30.25v-1.375a6.859 6.859 0 00-5.784-6.763 4.13 4.13 0 01-3.841 2.638h-5.5a4.125 4.125 0 010-8.25h5.5a4.112 4.112 0 013.91 2.87A9.6 9.6 0 0133 12.375v1.375h4.812a.69.69 0 01.688.688v1.375a.69.69 0 01-.687.687h-4.822v.155L30.25 41.25h4.812a.69.69 0 01.687.688v1.375a.69.69 0 01-.687.687H3.437a.69.69 0 01-.687-.687v-1.375a.69.69 0 01.687-.687h4.8L5.5 16.5H.687A.69.69 0 010 15.813v-1.375a.69.69 0 01.687-.688zm19.937-11h-5.5a1.375 1.375 0 000 2.75h5.5a1.375 1.375 0 000-2.75zM11 41.25h16.509v-.15l2.741-24.6H8.259zm13.4-11.507l.481 2.81a2.169 2.169 0 01-2.123 2.518 2.168 2.168 0 01-1-.249L19.241 33.5l-2.509 1.323a2.152 2.152 0 01-3.12-2.269l.481-2.8-2.037-1.985a2.153 2.153 0 011.195-3.67l2.81-.413 1.255-2.552a2.148 2.148 0 013.85 0l1.263 2.552 2.81.413a2.147 2.147 0 011.195 3.661zm-3.79-3.549l-1.358-2.75-1.358 2.75-3.034.447 2.2 2.148-.516 3.025 2.707-1.435 2.716 1.427-.517-3.026 2.2-2.148-3.042-.438z" fill="#fff"/></svg>