<svg xmlns="http://www.w3.org/2000/svg" width="30" height="30"><path d="M25.313 11.25h-.937V6.4a1.876 1.876 0 00-.549-1.326L19.3.549A1.875 1.875 0 0017.973 0H7.411a1.832 1.832 0 00-1.786 1.875v9.375h-.938A4.688 4.688 0 000 15.937v5.625a.937.937 0 00.938.938h4.687v6.563a.937.937 0 00.938.937h16.874a.937.937 0 00.938-.937V22.5h4.688a.937.937 0 00.937-.938v-5.625a4.688 4.688 0 00-4.687-4.687zm-6.563-8.6l2.974 2.974H18.75zM7.507 1.875h9.368v3.75A1.875 1.875 0 0018.75 7.5h3.75v3.75h-15l.006-9.375zM22.5 28.125h-15V22.5h15zm5.625-7.5H1.875v-4.688a2.815 2.815 0 012.812-2.812h20.626a2.815 2.815 0 012.813 2.812zm-4.688-5.156a1.406 1.406 0 101.406 1.406 1.406 1.406 0 00-1.406-1.406z" fill="#0071bc"/></svg>