<svg xmlns="http://www.w3.org/2000/svg" width="21.88" height="25"><path d="M17.188 15.625a4.675 4.675 0 00-3.506 1.575l-4.663-2.913a4.7 4.7 0 000-3.574L13.682 7.8a4.648 4.648 0 10-.83-1.323L8.188 9.39a4.685 4.685 0 100 6.221l4.663 2.915a4.629 4.629 0 00-.352 1.787 4.688 4.688 0 104.683-4.688zm0-14.063a3.125 3.125 0 11-3.125 3.125 3.128 3.128 0 013.125-3.124zm-12.5 14.063A3.125 3.125 0 117.813 12.5a3.128 3.128 0 01-3.125 3.125zm12.5 7.813a3.125 3.125 0 113.125-3.125 3.128 3.128 0 01-3.125 3.125z" fill="#fff"/></svg>