<svg xmlns="http://www.w3.org/2000/svg" width="44.001" height="44"><path d="M.405 40.021a1.364 1.364 0 011.942 0 4.191 4.191 0 004.658.885l11.18-5.99a4.035 4.035 0 01-.988-1l-.043-.069-.043-.069-3.463-5.878a5.514 5.514 0 01.73-6.875l4.254-4.254-11.283 6.174a4.122 4.122 0 11-3.687-7.373l3.962-1.994.868-2.6c-.086 0-.163.026-.241.026a5.5 5.5 0 115.474-5.758 6.646 6.646 0 014.262.249l7.168 2.875a6.994 6.994 0 011.22.67l3.438-1.968a3.351 3.351 0 011.813-3.231l.954 1.873 2.973-.6a.452.452 0 01.387.782l-2.243 1.967a.032.032 0 00-.009.026l.988 1.925a3.339 3.339 0 01-3.523-.327l-2.793 1.6a6.761 6.761 0 01.988 2.295 6.844 6.844 0 01-1.873 6.239l-5.749 5.749 2.389 4.056a4.043 4.043 0 01.619 1.985l17.239-9.247a1.377 1.377 0 011.306 2.423L8.234 43.364a6.951 6.951 0 01-7.82-1.4 1.357 1.357 0 01-.009-1.943zM8.251 2.75a2.75 2.75 0 102.754 2.75 2.753 2.753 0 00-2.754-2.75zm8.714 5.311a4.143 4.143 0 00-5.44 2.527l-1.65 4.941-4.992 2.492a1.374 1.374 0 001.229 2.458l2.432-1.212 3.42-1.959a2.724 2.724 0 00.516-.911l1.555-4.675 4.305 1.925 5.173-2.965-6.548-2.621zm4.8 22.808l-3.5-5.938 7.253-7.262a4.132 4.132 0 001.126-3.747 4.009 4.009 0 00-.662-1.487l-4.529 2.6 1.951.868-7.075 7.077a2.759 2.759 0 00-.344 3.472l3.5 5.938a1.373 1.373 0 002.284-1.521z" fill="#fff"/></svg>