<svg xmlns="http://www.w3.org/2000/svg" width="34.29" height="30"><path d="M20.366 9.643H19.29a1.066 1.066 0 00-.958.589L17.147 12.6l-1.181-2.368a1.066 1.066 0 00-.958-.589h-1.075a1.075 1.075 0 00-1.067 1.071v6.964a.537.537 0 00.536.536h1.064a.537.537 0 00.536-.536v-4.566l1.664 3.736a.535.535 0 00.958 0l1.661-3.737v4.567a.537.537 0 00.536.536h1.071a.537.537 0 00.536-.536v-6.964a1.065 1.065 0 00-1.062-1.071zM9.071 12.489a.343.343 0 01-.141-.254c0-.208.3-.442.7-.442h.824a.537.537 0 00.536-.536v-1.072a.537.537 0 00-.536-.536h-.82a2.723 2.723 0 00-2.839 2.585 2.487 2.487 0 00.891 1.882l1.467 1.259a.343.343 0 01.141.254c0 .208-.3.442-.7.442h-.822a.537.537 0 00-.536.536v1.071a.537.537 0 00.536.536h.824a2.723 2.723 0 002.839-2.585 2.487 2.487 0 00-.891-1.882l-1.473-1.258zm16.071 0a.343.343 0 01-.141-.254c0-.208.3-.442.7-.442h.824a.537.537 0 00.536-.536v-1.072a.537.537 0 00-.536-.536h-.824a2.723 2.723 0 00-2.839 2.585 2.487 2.487 0 00.891 1.882l1.467 1.259a.343.343 0 01.141.254c0 .208-.3.442-.7.442h-.817a.537.537 0 00-.536.536v1.071a.537.537 0 00.536.536h.822a2.723 2.723 0 002.839-2.585 2.487 2.487 0 00-.891-1.882zM17.147 0C7.678 0 .004 6.234.004 13.929a12.31 12.31 0 003.542 8.457 16.993 16.993 0 01-3.107 4.9A1.608 1.608 0 001.605 30a16.248 16.248 0 009.315-3.1 20.759 20.759 0 006.228.958c9.469 0 17.143-6.234 17.143-13.929S26.616 0 17.147 0zm0 25.714a18.47 18.47 0 01-5.571-.857l-1.018-.321-.871.616a14.449 14.449 0 01-6.87 2.648 18.065 18.065 0 002.732-4.661l.475-1.252-.917-.978a10.143 10.143 0 01-2.953-6.984c0-6.5 6.73-11.786 15-11.786s15 5.29 15 11.786-6.737 11.789-15.007 11.789z" fill="#29abe2"/></svg>