<svg xmlns="http://www.w3.org/2000/svg" width="26" height="24"><path d="M25.85 10.267l-2.017-.777-.841-1.863a.281.281 0 00-.484 0l-.841 1.863-2.017.777a.242.242 0 000 .448l2.017.777.841 1.863a.281.281 0 00.485 0l.841-1.863 2.017-.777a.242.242 0 000-.448zm-7.35 2.252l-5.328-.719-2.383-4.462a1.167 1.167 0 00-1.046-.6 1.15 1.15 0 00-1.041.6L6.32 11.8 1 12.519a1.06 1.06 0 00-.647 1.841l3.855 3.471-.914 4.9a1.02 1.02 0 00.255.879 1.209 1.209 0 00.892.39 1.225 1.225 0 00.543-.126l4.764-2.314 4.764 2.314a1.267 1.267 0 00.538.126 1.215 1.215 0 00.892-.384 1.024 1.024 0 00.261-.876l-.909-4.9 3.855-3.471a1.065 1.065 0 00-.649-1.85zm-4.952 4.791l.894 4.835-4.7-2.286-4.7 2.286.894-4.835-3.79-3.428 5.25-.707 2.352-4.4 2.346 4.4 5.252.707zm7.942-13.5l-2.468-1.14L17.789.383a.881.881 0 00-1.454 0L15.1 2.663 12.635 3.8a.748.748 0 00-.448.671.767.767 0 00.448.68L15.1 6.293l1.233 2.28a.825.825 0 00.727.417.815.815 0 00.727-.417l1.233-2.28 2.468-1.14a.726.726 0 000-1.341zm-3.437 1.25a.793.793 0 00-.365.338l-.625 1.159-.626-1.157a.821.821 0 00-.365-.338l-1.254-.581 1.254-.581a.79.79 0 00.365-.338l.625-1.162.625 1.159a.813.813 0 00.365.338l1.254.582z" fill="#fff"/></svg>