<svg xmlns="http://www.w3.org/2000/svg" width="20" height="17.5"><path d="M18.125 3.75H13.75V1.875A1.877 1.877 0 0011.875 0h-3.75A1.877 1.877 0 006.25 1.875V3.75H1.875A1.875 1.875 0 000 5.625v10A1.875 1.875 0 001.875 17.5h16.25A1.875 1.875 0 0020 15.625v-10a1.875 1.875 0 00-1.875-1.875zM7.5 1.875a.626.626 0 01.625-.625h3.75a.626.626 0 01.625.625V3.75h-5zM3.75 16.25H1.875a.627.627 0 01-.625-.625v-10A.627.627 0 011.875 5H3.75zm11.25 0H5V5h10zm3.75-.625a.627.627 0 01-.625.625H16.25V5h1.875a.627.627 0 01.625.625z" fill="#002036"/></svg>