<svg xmlns="http://www.w3.org/2000/svg" width="44" height="44"><path d="M42.681 24.551A6.9 6.9 0 0044 20.236 6.351 6.351 0 0037.75 14h-6.028A12.5 12.5 0 0033.5 8c0-5.019-2-8-7.125-8-2.575 0-3.534 3.259-4.024 5.777-.293 1.5-.569 2.926-1.42 3.777-2.026 2.026-5.119 6.946-6.976 7.946a3.528 3.528 0 01-.69.191A2.746 2.746 0 0011 16.5H2.75A2.75 2.75 0 000 19.25v22A2.75 2.75 0 002.75 44H11a2.75 2.75 0 002.75-2.75v-.75C16.543 40.5 22.4 44 29 44h3.525c5.095 0 7.928-3.084 7.763-7.717a7.136 7.136 0 001.566-5.767 8.033 8.033 0 00.827-5.965zM2.75 41.25v-22H11v22zm36.439-17.5c1.374 1 1.374 5.126-.482 6.073a4.109 4.109 0 01-1.29 5.328c.713 4.515-1.629 6.068-4.917 6.1H29c-6.267 0-11.579-3.5-15.25-3.5v-17.5c3.241 0 6.214-5.839 9.125-8.75 2.625-2.625 1.75-7 3.5-8.75C30.75 2.749 30.75 5.8 30.75 8c0 3.626-2.625 5.25-2.625 8.75h9.625a3.615 3.615 0 013.5 3.5c.009 1.75-.688 3.126-2.061 3.5zM8.938 37.125a2.063 2.063 0 11-2.063-2.062 2.062 2.062 0 012.063 2.062z" fill="#fff"/></svg>