<svg xmlns="http://www.w3.org/2000/svg" width="17.5" height="20"><path d="M17.188 2.5h-4.063L11.812.75a1.875 1.875 0 00-1.5-.75H7.188a1.875 1.875 0 00-1.5.75L4.375 2.5H.313A.313.313 0 000 2.813v.625a.312.312 0 00.313.312h.738l1.3 14.543A1.875 1.875 0 004.215 20h9.07a1.875 1.875 0 001.867-1.707l1.3-14.543h.738a.313.313 0 00.313-.312v-.625a.313.313 0 00-.315-.313zm-10.5-1a.629.629 0 01.5-.25h3.125a.629.629 0 01.5.25l.75 1H5.937zm7.219 16.68a.621.621 0 01-.621.57H4.215a.621.621 0 01-.621-.57L2.3 3.75h12.9z" fill="#002036"/></svg>