<svg xmlns="http://www.w3.org/2000/svg" width="44.001" height="44"><path d="M26.13 30.25a4.125 4.125 0 104.125 4.125 4.126 4.126 0 00-4.125-4.125zm0 5.5a1.375 1.375 0 111.375-1.375 1.379 1.379 0 01-1.375 1.375zm-2.75-12.375a4.125 4.125 0 10-4.125 4.125 4.126 4.126 0 004.125-4.125zm-4.125 1.375a1.375 1.375 0 111.375-1.375 1.379 1.379 0 01-1.375 1.375zm24.174 14.816l-7.262-9.341a2.753 2.753 0 001.71-4.486L26.353 11.9l2.4-1.195a2.746 2.746 0 000-4.916l-2.847-1.423-1.426-2.845A2.784 2.784 0 0022.005 0a2.739 2.739 0 00-2.458 1.521l-1.426 2.845-2.845 1.426a2.746 2.746 0 000 4.916l2.4 1.195L6.149 25.738a2.753 2.753 0 001.712 4.486l-7.28 9.342A2.746 2.746 0 002.755 44h38.5a2.752 2.752 0 002.174-4.434zM16.505 8.25l3.67-1.83 1.83-3.67 1.83 3.67 3.67 1.83-3.67 1.83-1.83 3.67-1.83-3.67zm-13.75 33L13.446 27.5H8.255l10.966-13.166.318.645a2.746 2.746 0 004.916 0l.318-.645L35.755 27.5h-5.194l10.694 13.75z" fill="#fff"/></svg>