<svg xmlns="http://www.w3.org/2000/svg" width="19.997" height="20"><path d="M16.248 9.494v-.312a.47.47 0 01.469-.469h.312a.47.47 0 01.469.469v.312a.47.47 0 01-.469.469h-.312a.47.47 0 01-.469-.469zM20 5.588v11.249a1.875 1.875 0 01-1.875 1.875H17.5v1.289h-.625l-.43-1.289H3.554l-.43 1.289H2.5v-1.289h-.625A1.875 1.875 0 010 16.837V5.588a1.875 1.875 0 011.875-1.875h6.253l-2.922-2.62a.625.625 0 01.832-.934L10 3.713h.031L13.955.165a.625.625 0 01.836.93l-2.9 2.621h6.23A1.875 1.875 0 0120 5.588zm-1.25 0a.627.627 0 00-.625-.625H1.875a.627.627 0 00-.625.625v11.249a.627.627 0 00.625.625h16.248a.627.627 0 00.625-.625zm-10 1.914c-2.687 0-4.148.09-4.894.168-.051.562-.105 1.621-.105 3.543 0 1.972.055 3.046.105 3.625.75.074 2.207.164 4.894.164s4.144-.09 4.894-.164c.051-.574.105-1.652.105-3.625 0-1.922-.055-2.98-.105-3.543-.746-.078-2.207-.168-4.894-.168m0-1.25c5 0 5.937.312 5.937.312s.313.001.313 4.648c0 4.726-.312 4.726-.312 4.726s-.937.312-5.937.312-5.937-.312-5.937-.312-.312 0-.312-4.726c-.002-4.647.31-4.647.31-4.647s.937-.312 5.937-.312zm7.968 6.21h.312a.47.47 0 00.469-.469v-.312a.47.47 0 00-.469-.469h-.312a.47.47 0 00-.469.469v.312a.47.47 0 00.468.472z" fill="#002036"/></svg>