<svg xmlns="http://www.w3.org/2000/svg" width="55" height="44"><path d="M38.112 1.554a25.636 25.636 0 00-28.833 8.1 1.374 1.374 0 00.638 2.124l20.293 7.385-8.039 22.087H.688a.687.687 0 00-.688.688v1.375A.687.687 0 00.688 44h48.125a.687.687 0 00.687-.687v-1.375a.687.687 0 00-.687-.688H25.1l7.7-21.147 20.346 7.405a1.38 1.38 0 00.475.084 1.361 1.361 0 001.378-1.3A25.671 25.671 0 0038.112 1.554zM12.733 9.876A23.143 23.143 0 0129.341 2.75q1.007 0 2.008.089C28.18 4.83 25.01 8.565 22.492 13.428l-9.759-3.552zm27.088 9.86l-14.705-5.353c3.474-6.569 7.96-10.422 11.012-10.422a3.011 3.011 0 011.042.177c1.681.612 2.919 3.022 3.314 6.445a28.715 28.715 0 01-.662 9.153zm2.647.963c1.189-5.291 1.175-10.165.06-13.719a22.864 22.864 0 019.677 17.264L42.469 20.7z" fill="#fff"/></svg>