<svg xmlns="http://www.w3.org/2000/svg" width="22" height="22"><path d="M1.571 22a1.571 1.571 0 01-1.572-1.571 6.286 6.286 0 016.286-6.284h.233a5.424 5.424 0 011.74.332 8.526 8.526 0 005.482 0 5.449 5.449 0 011.743-.333h.231A6.285 6.285 0 0122 20.429 1.571 1.571 0 0120.428 22zm0-1.571h18.857a4.719 4.719 0 00-4.714-4.714h-.231a3.91 3.91 0 00-1.239.251 10.115 10.115 0 01-6.49 0 3.893 3.893 0 00-1.236-.25h-.233a4.718 4.718 0 00-4.714 4.713zM4.714 6.286A6.286 6.286 0 1111 12.571a6.286 6.286 0 01-6.286-6.285zm1.571 0a4.714 4.714 0 104.714-4.715 4.714 4.714 0 00-4.714 4.715z" fill="#002036"/></svg>