<svg xmlns="http://www.w3.org/2000/svg" width="21" height="24"><path d="M10.5 12a6 6 0 10-6-6 6 6 0 006 6zm0-10.5A4.5 4.5 0 116 6a4.507 4.507 0 014.5-4.5zm4.308 12.759l-1.861 6.459-1.589-4.767 1.172-1.171A.75.75 0 0012 13.5H9a.749.749 0 00-.53 1.28l1.172 1.172-1.589 4.767-1.861-6.455A6.288 6.288 0 000 20.55v1.2A2.251 2.251 0 002.25 24h16.5A2.251 2.251 0 0021 21.75v-1.2a6.3 6.3 0 00-6.192-6.291zM2.25 22.5a.752.752 0 01-.75-.75v-1.2a4.817 4.817 0 013.6-4.636L7 22.5zm6.792 0l1.458-4.378 1.458 4.378zm10.458-.75a.752.752 0 01-.75.75h-4.758l1.9-6.586a4.817 4.817 0 013.6 4.636v1.2z" fill="#fff"/></svg>