<svg xmlns="http://www.w3.org/2000/svg" width="43.75" height="50"><path d="M31.25 34.375h-.459a10.827 10.827 0 00-3.467.664 16.969 16.969 0 01-10.9 0 10.783 10.783 0 00-3.459-.662H12.5A12.5 12.5 0 000 46.875 3.125 3.125 0 003.125 50h37.5a3.125 3.125 0 003.125-3.125 12.5 12.5 0 00-12.5-12.5zm-28.125 12.5A9.385 9.385 0 0112.5 37.5h.463a7.768 7.768 0 012.457.5 20.093 20.093 0 0012.906 0 7.805 7.805 0 012.465-.5h.459a9.385 9.385 0 019.375 9.375zm1.563-25a1.562 1.562 0 001.562-1.562V18.75a15.625 15.625 0 0131.25 0v1.563a7.821 7.821 0 01-7.813 7.812h-3.124A3.125 3.125 0 0023.438 25h-3.125a3.125 3.125 0 100 6.25h9.375a10.951 10.951 0 0010.937-10.937V18.75a18.75 18.75 0 00-37.5 0v1.563a1.562 1.562 0 001.563 1.562zm17.188-12.5a9.333 9.333 0 016.956 15.6c0 .009.013.015.018.023h.839a4.677 4.677 0 003.96-2.205A12.484 12.484 0 1014.1 28.464c-.006-.114-.034-.223-.034-.339A6.177 6.177 0 0114.935 25a9.334 9.334 0 016.94-15.625z" fill="#fff"/></svg>