<svg xmlns="http://www.w3.org/2000/svg" width="21" height="24"><path d="M15 16.5h-.22a5.2 5.2 0 00-1.664.319 8.145 8.145 0 01-5.233 0 5.176 5.176 0 00-1.66-.318H6a6 6 0 00-6 6A1.5 1.5 0 001.5 24h18a1.5 1.5 0 001.5-1.5 6 6 0 00-6-6zm-13.5 6A4.5 4.5 0 016 18h.222a3.729 3.729 0 011.179.239 9.645 9.645 0 006.2 0A3.746 3.746 0 0114.78 18H15a4.5 4.5 0 014.5 4.5zm.75-12A.75.75 0 003 9.75V9a7.5 7.5 0 0115 0v.75a3.754 3.754 0 01-3.75 3.75h-1.5a1.5 1.5 0 00-1.5-1.5h-1.5a1.5 1.5 0 100 3h4.5a5.257 5.257 0 005.25-5.25V9a9 9 0 00-18 0v.75a.75.75 0 00.75.75zm8.25-6a4.48 4.48 0 013.339 7.489l.008.011h.4a2.245 2.245 0 001.9-1.058 5.992 5.992 0 10-9.384 2.721c0-.055-.016-.107-.016-.163a2.965 2.965 0 01.422-1.5A4.48 4.48 0 0110.5 4.5z" fill="#002036"/></svg>