<svg xmlns="http://www.w3.org/2000/svg" width="54.655" height="48.583"><path d="M6.072 48.583A6.072 6.072 0 010 42.511V6.073A6.072 6.072 0 016.072.001h42.511a6.072 6.072 0 016.072 6.072v36.438a6.072 6.072 0 01-6.072 6.072zM4.047 6.072V42.51a2.025 2.025 0 002.025 2.021h42.511a2.022 2.022 0 002.021-2.021V6.072a2.023 2.023 0 00-2.021-2.021H6.072a2.027 2.027 0 00-2.025 2.021zm13.954 28.846V14.377a2.375 2.375 0 013.524-2.077L38.91 22.871a2.376 2.376 0 010 4.146l-17.385 9.974a2.348 2.348 0 01-1.146.3A2.374 2.374 0 0118 34.918zm3.16-18.082v15.693a.593.593 0 00.89.512l13.283-7.622a.594.594 0 00.011-1.02l-13.286-8.068a.583.583 0 00-.311-.092.591.591 0 00-.587.597z" fill="#b2bbc2"/></svg>