<svg xmlns="http://www.w3.org/2000/svg" width="38.5" height="44"><path d="M33.8 12.143l1.5-1.5a1.032 1.032 0 000-1.461l-.49-.49a1.032 1.032 0 00-1.461 0l-1.5 1.5A19.182 19.182 0 0020.53 5.534V2.75h2.148a1.034 1.034 0 001.032-1.031v-.688A1.034 1.034 0 0022.679 0H15.8a1.034 1.034 0 00-1.031 1.031v.688A1.034 1.034 0 0015.8 2.75h1.98v2.8a19.253 19.253 0 1016.02 6.593zM19.25 41.25a16.5 16.5 0 1116.5-16.5 16.493 16.493 0 01-16.5 16.5zm.344-11h-.687a1.034 1.034 0 01-1.031-1.031V14.781a1.034 1.034 0 011.031-1.031h.687a1.034 1.034 0 011.031 1.031v14.438a1.034 1.034 0 01-1.031 1.031z" fill="#fff"/></svg>