<svg xmlns="http://www.w3.org/2000/svg" width="30" height="30"><path d="M25.507 4.359A14.871 14.871 0 002.109 22.3L0 30l7.882-2.069a14.821 14.821 0 007.1 1.808h.007a14.772 14.772 0 0010.518-25.38zM14.993 27.234A12.334 12.334 0 018.7 25.513l-.449-.268-4.675 1.226 1.246-4.56-.295-.469a12.38 12.38 0 1122.962-6.569 12.494 12.494 0 01-12.496 12.361zm6.777-9.254c-.368-.187-2.2-1.085-2.538-1.205s-.589-.187-.837.188-.958 1.205-1.179 1.46-.435.281-.8.094a10.111 10.111 0 01-5.056-4.42c-.382-.656.382-.609 1.092-2.029a.688.688 0 00-.033-.65c-.094-.187-.837-2.016-1.145-2.759-.3-.723-.609-.623-.837-.636s-.462-.013-.71-.013a1.376 1.376 0 00-.991.462 4.174 4.174 0 00-1.3 3.1 7.277 7.277 0 001.513 3.844 16.6 16.6 0 006.348 5.612c2.357 1.018 3.281 1.1 4.46.931a3.8 3.8 0 002.5-1.768 3.107 3.107 0 00.214-1.768c-.085-.169-.333-.262-.701-.443z" fill="#29abe2"/></svg>