<svg xmlns="http://www.w3.org/2000/svg" width="20" height="14"><path d="M10.002 8.997a2.5 2.5 0 102.5 2.5 2.5 2.5 0 00-2.5-2.5zm0 4a1.5 1.5 0 111.5-1.5 1.5 1.5 0 01-1.5 1.5zm9.881-9.064a14.372 14.372 0 00-19.763 0 .377.377 0 00-.008.541l.178.178a.376.376 0 00.525.008 13.365 13.365 0 0118.374 0 .377.377 0 00.525-.008l.178-.178a.378.378 0 00-.008-.541zm-3.444 3.514a9.693 9.693 0 00-12.876 0 .374.374 0 00-.02.537l.173.181a.375.375 0 00.521.021 8.694 8.694 0 0111.531 0 .375.375 0 00.521-.021l.173-.181a.375.375 0 00-.023-.537z" fill="#002036"/></svg>